<svg width="37" height="38" viewBox="0 0 37 38" fill="none" xmlns="http://www.w3.org/2000/svg">
<path d="M13.1665 0V6.66667M23.8332 0V6.66667M12.4998 10H16.4998M24.4998 10H20.4998M12.4998 14H16.4998M20.4998 14H24.4998M10.4998 3.33333H26.4998C27.2362 3.33333 27.8332 3.93029 27.8332 4.66667V18C27.8332 18.7364 27.2362 19.3333 26.4998 19.3333H10.4998C9.76346 19.3333 9.1665 18.7364 9.1665 18V4.66667C9.1665 3.93029 9.76346 3.33333 10.4998 3.33333Z" stroke="#2FD1C5"/>
<path d="M1.10875 34H0.31875L3.37875 26.92H4.07875L7.11875 34H6.31875L5.53875 32.14H1.87875L1.10875 34ZM2.14875 31.48H5.26875L3.70875 27.72L2.14875 31.48ZM8.3707 34.94C8.55737 35.18 8.8107 35.3833 9.1307 35.55C9.45737 35.7167 9.8007 35.8 10.1607 35.8C10.494 35.8 10.7774 35.75 11.0107 35.65C11.244 35.5567 11.4307 35.4267 11.5707 35.26C11.7174 35.0933 11.824 34.8967 11.8907 34.67C11.9574 34.45 11.9907 34.2133 11.9907 33.96V33.08H11.9707C11.7907 33.3733 11.534 33.6 11.2007 33.76C10.874 33.92 10.5407 34 10.2007 34C9.83404 34 9.5007 33.94 9.2007 33.82C8.90737 33.7 8.65404 33.5367 8.4407 33.33C8.23404 33.1167 8.0707 32.8633 7.9507 32.57C7.83737 32.2767 7.7807 31.96 7.7807 31.62C7.7807 31.2867 7.83737 30.9733 7.9507 30.68C8.0707 30.3867 8.23404 30.13 8.4407 29.91C8.65404 29.69 8.90737 29.5167 9.2007 29.39C9.5007 29.2633 9.83404 29.2 10.2007 29.2C10.5407 29.2 10.874 29.28 11.2007 29.44C11.5274 29.6 11.784 29.83 11.9707 30.13H11.9907V29.32H12.6707V33.96C12.6707 34.2133 12.634 34.4833 12.5607 34.77C12.494 35.0567 12.364 35.32 12.1707 35.56C11.984 35.8 11.7274 36 11.4007 36.16C11.074 36.32 10.6507 36.4 10.1307 36.4C9.69737 36.4 9.28404 36.3167 8.8907 36.15C8.49737 35.9833 8.1607 35.7533 7.8807 35.46L8.3707 34.94ZM8.5007 31.6C8.5007 31.8467 8.5407 32.08 8.6207 32.3C8.7007 32.52 8.81404 32.7133 8.9607 32.88C9.11404 33.0467 9.3007 33.18 9.5207 33.28C9.7407 33.3733 9.9907 33.42 10.2707 33.42C10.5307 33.42 10.7707 33.3767 10.9907 33.29C11.2107 33.2033 11.4007 33.08 11.5607 32.92C11.7207 32.76 11.844 32.57 11.9307 32.35C12.024 32.1233 12.0707 31.8733 12.0707 31.6C12.0707 31.3533 12.024 31.12 11.9307 30.9C11.844 30.68 11.7207 30.4867 11.5607 30.32C11.4007 30.1533 11.2107 30.02 10.9907 29.92C10.7707 29.82 10.5307 29.77 10.2707 29.77C9.9907 29.77 9.7407 29.82 9.5207 29.92C9.3007 30.02 9.11404 30.1533 8.9607 30.32C8.81404 30.4867 8.7007 30.68 8.6207 30.9C8.5407 31.12 8.5007 31.3533 8.5007 31.6ZM18.0091 31.3C17.9891 30.86 17.8457 30.4967 17.5791 30.21C17.3191 29.9167 16.9457 29.77 16.4591 29.77C16.2324 29.77 16.0224 29.8133 15.8291 29.9C15.6357 29.98 15.4657 30.0933 15.3191 30.24C15.1724 30.38 15.0557 30.5433 14.9691 30.73C14.8824 30.91 14.8324 31.1 14.8191 31.3H18.0091ZM18.6991 31.52C18.6991 31.5667 18.6991 31.6167 18.6991 31.67C18.6991 31.7233 18.6957 31.78 18.6891 31.84H14.8091C14.8157 32.0733 14.8624 32.2933 14.9491 32.5C15.0357 32.7067 15.1557 32.8867 15.3091 33.04C15.4624 33.1933 15.6424 33.3167 15.8491 33.41C16.0557 33.4967 16.2791 33.54 16.5191 33.54C16.8724 33.54 17.1757 33.46 17.4291 33.3C17.6891 33.1333 17.8857 32.9433 18.0191 32.73L18.5291 33.13C18.2491 33.4833 17.9391 33.7367 17.5991 33.89C17.2657 34.0433 16.9057 34.12 16.5191 34.12C16.1724 34.12 15.8491 34.06 15.5491 33.94C15.2557 33.8133 15.0024 33.64 14.7891 33.42C14.5757 33.2 14.4057 32.94 14.2791 32.64C14.1591 32.34 14.0991 32.0133 14.0991 31.66C14.0991 31.3067 14.1591 30.98 14.2791 30.68C14.3991 30.38 14.5657 30.12 14.7791 29.9C14.9924 29.68 15.2424 29.51 15.5291 29.39C15.8157 29.2633 16.1257 29.2 16.4591 29.2C16.8257 29.2 17.1491 29.2633 17.4291 29.39C17.7091 29.51 17.9424 29.6767 18.1291 29.89C18.3157 30.0967 18.4557 30.34 18.5491 30.62C18.6491 30.9 18.6991 31.2 18.6991 31.52ZM20.7717 29.32C20.7851 29.4467 20.7951 29.5867 20.8017 29.74C20.8084 29.8933 20.8117 30.02 20.8117 30.12H20.8317C20.9651 29.8467 21.1817 29.6267 21.4817 29.46C21.7817 29.2867 22.0984 29.2 22.4317 29.2C23.0251 29.2 23.4684 29.3767 23.7617 29.73C24.0617 30.0833 24.2117 30.55 24.2117 31.13V34H23.5317V31.41C23.5317 31.1633 23.5117 30.94 23.4717 30.74C23.4317 30.54 23.3617 30.37 23.2617 30.23C23.1684 30.0833 23.0384 29.97 22.8717 29.89C22.7117 29.81 22.5084 29.77 22.2617 29.77C22.0817 29.77 21.9051 29.8067 21.7317 29.88C21.5651 29.9533 21.4151 30.0667 21.2817 30.22C21.1484 30.3667 21.0417 30.5567 20.9617 30.79C20.8817 31.0167 20.8417 31.2867 20.8417 31.6V34H20.1617V30.35C20.1617 30.2233 20.1584 30.06 20.1517 29.86C20.1451 29.66 20.1351 29.48 20.1217 29.32H20.7717ZM29.8223 33.21C29.6223 33.51 29.3623 33.7367 29.0423 33.89C28.7223 34.0433 28.3923 34.12 28.0523 34.12C27.6856 34.12 27.3523 34.0567 27.0523 33.93C26.7589 33.8033 26.5056 33.63 26.2923 33.41C26.0856 33.19 25.9223 32.93 25.8023 32.63C25.6889 32.33 25.6323 32.0067 25.6323 31.66C25.6323 31.3133 25.6889 30.99 25.8023 30.69C25.9223 30.39 26.0856 30.13 26.2923 29.91C26.5056 29.69 26.7589 29.5167 27.0523 29.39C27.3523 29.2633 27.6856 29.2 28.0523 29.2C28.3923 29.2 28.7223 29.28 29.0423 29.44C29.3623 29.5933 29.6223 29.8233 29.8223 30.13H29.8423V26.44H30.5223V34H29.8423V33.21H29.8223ZM26.3523 31.66C26.3523 31.92 26.3923 32.1667 26.4723 32.4C26.5523 32.6267 26.6656 32.8267 26.8123 33C26.9656 33.1667 27.1523 33.3 27.3723 33.4C27.5923 33.4933 27.8423 33.54 28.1223 33.54C28.3823 33.54 28.6223 33.4933 28.8423 33.4C29.0623 33.3 29.2523 33.1667 29.4123 33C29.5723 32.8333 29.6956 32.6367 29.7823 32.41C29.8756 32.1767 29.9223 31.9267 29.9223 31.66C29.9223 31.3933 29.8756 31.1467 29.7823 30.92C29.6956 30.6867 29.5723 30.4867 29.4123 30.32C29.2523 30.1467 29.0623 30.0133 28.8423 29.92C28.6223 29.82 28.3823 29.77 28.1223 29.77C27.8423 29.77 27.5923 29.82 27.3723 29.92C27.1523 30.02 26.9656 30.1567 26.8123 30.33C26.6656 30.4967 26.5523 30.6967 26.4723 30.93C26.3923 31.1567 26.3523 31.4 26.3523 31.66ZM35.2895 30.98C35.2895 30.5733 35.1828 30.27 34.9695 30.07C34.7561 29.87 34.4461 29.77 34.0395 29.77C33.7595 29.77 33.4995 29.82 33.2595 29.92C33.0195 30.02 32.8161 30.1533 32.6495 30.32L32.2695 29.87C32.4628 29.6767 32.7161 29.5167 33.0295 29.39C33.3495 29.2633 33.7095 29.2 34.1095 29.2C34.3628 29.2 34.5995 29.2367 34.8195 29.31C35.0395 29.3767 35.2328 29.48 35.3995 29.62C35.5661 29.76 35.6961 29.9367 35.7895 30.15C35.8828 30.3633 35.9295 30.6133 35.9295 30.9V32.95C35.9295 33.13 35.9361 33.3167 35.9495 33.51C35.9628 33.7033 35.9828 33.8667 36.0095 34H35.3995C35.3795 33.8867 35.3628 33.7633 35.3495 33.63C35.3361 33.4967 35.3295 33.3667 35.3295 33.24H35.3095C35.0961 33.5533 34.8528 33.78 34.5795 33.92C34.3128 34.0533 33.9895 34.12 33.6095 34.12C33.4295 34.12 33.2428 34.0933 33.0495 34.04C32.8628 33.9933 32.6895 33.9133 32.5295 33.8C32.3761 33.6867 32.2461 33.54 32.1395 33.36C32.0395 33.18 31.9895 32.96 31.9895 32.7C31.9895 32.34 32.0795 32.0567 32.2595 31.85C32.4461 31.6367 32.6928 31.48 32.9995 31.38C33.3061 31.2733 33.6561 31.2067 34.0495 31.18C34.4495 31.1467 34.8628 31.13 35.2895 31.13V30.98ZM35.0895 31.66C34.8095 31.66 34.5261 31.6733 34.2395 31.7C33.9595 31.72 33.7028 31.7667 33.4695 31.84C33.2428 31.9067 33.0561 32.0067 32.9095 32.14C32.7628 32.2733 32.6895 32.45 32.6895 32.67C32.6895 32.8367 32.7195 32.9767 32.7795 33.09C32.8461 33.2033 32.9328 33.2967 33.0395 33.37C33.1461 33.4367 33.2628 33.4867 33.3895 33.52C33.5228 33.5467 33.6561 33.56 33.7895 33.56C34.0295 33.56 34.2428 33.52 34.4295 33.44C34.6161 33.3533 34.7728 33.24 34.8995 33.1C35.0261 32.9533 35.1228 32.7867 35.1895 32.6C35.2561 32.4133 35.2895 32.2167 35.2895 32.01V31.66H35.0895Z" fill="#2FD1C5"/>
</svg>
