<svg width="262" height="80" viewBox="0 0 262 80" fill="none" xmlns="http://www.w3.org/2000/svg">
<g filter="url(#filter0_d_607_2197)">
<rect x="8" y="4" width="64" height="64" rx="8" fill="#93B5FF"/>
</g>
<g clip-path="url(#clip0_607_2197)">
<path fill-rule="evenodd" clip-rule="evenodd" d="M64.0001 36.0017C64.0007 31.2543 62.5934 26.6135 59.9564 22.666C57.3193 18.7185 53.5708 15.6417 49.185 13.8247C44.7991 12.0077 39.973 11.5322 35.3169 12.4582C30.6607 13.3842 26.3838 15.6702 23.027 19.027C19.6701 22.3839 17.3841 26.6608 16.4581 31.3169C15.5321 35.973 16.0077 40.7992 17.8247 45.185C19.6416 49.5708 22.7185 53.3193 26.6659 55.9564C30.6134 58.5935 35.2543 60.0008 40.0016 60.0002C46.362 59.9859 52.4578 57.4529 56.9553 52.9554C61.4528 48.4579 63.9858 42.3621 64.0001 36.0017V36.0017Z" fill="white"/>
<path fill-rule="evenodd" clip-rule="evenodd" d="M35.7051 42.9346H44.352C43.002 41.4313 42.3316 39.453 41.9948 37.7392C41.7406 36.5781 41.6175 35.3921 41.628 34.2035H38.399C38.4115 35.3906 38.2986 36.5758 38.0622 37.7392C37.7616 39.453 37.0821 41.4193 35.7051 42.9346V42.9346Z" fill="#F9B54C"/>
<path fill-rule="evenodd" clip-rule="evenodd" d="M35.3143 35.1866C35.2262 35.1952 35.1376 35.1751 35.0618 35.1294L31.523 33.3044C30.7508 32.9013 30.0704 32.3428 29.5245 31.6639C28.9786 30.985 28.5791 30.2006 28.3511 29.3598L27.3409 25.3731C27.2553 25.0355 27.2488 24.6827 27.3218 24.3422C27.3948 24.0017 27.5454 23.6826 27.7618 23.4098C27.9772 23.1303 28.2535 22.9038 28.5698 22.7474C28.8861 22.5911 29.234 22.5092 29.5868 22.5078H35.2993C35.376 22.5089 35.4517 22.5255 35.5219 22.5567C35.592 22.5878 35.6551 22.6328 35.7074 22.689C35.7596 22.7452 35.7999 22.8114 35.8259 22.8836C35.8519 22.9558 35.863 23.0325 35.8585 23.1091C35.8585 23.2577 35.7997 23.4003 35.6949 23.5056C35.5901 23.611 35.4479 23.6706 35.2993 23.6714H29.5868C29.4089 23.6729 29.2336 23.7139 29.0735 23.7913C28.9133 23.8688 28.7724 23.9808 28.6608 24.1193C28.5503 24.2549 28.4724 24.4141 28.4333 24.5846C28.3942 24.7551 28.3949 24.9323 28.4353 25.1025L29.4455 29.0591C29.6289 29.7465 29.9532 30.3882 30.3978 30.9436C30.8424 31.499 31.3976 31.9558 32.0281 32.2852L35.5939 34.1102C35.7193 34.1856 35.8117 34.3053 35.8529 34.4457C35.8941 34.586 35.8811 34.7367 35.8164 34.8679C35.7719 34.9621 35.7004 35.0409 35.611 35.0944C35.5216 35.148 35.4184 35.1737 35.3143 35.1685V35.1866Z" fill="#F9B54C"/>
<path fill-rule="evenodd" clip-rule="evenodd" d="M44.6885 35.1867C44.5857 35.184 44.4852 35.1549 44.3968 35.1023C44.3083 35.0496 44.2349 34.9752 44.1834 34.886C44.1174 34.7519 44.1069 34.5972 44.1542 34.4553C44.2014 34.3135 44.3027 34.196 44.436 34.1284L47.9717 32.3034C48.6094 31.9778 49.1703 31.5201 49.6172 30.9607C50.0641 30.4013 50.3867 29.7531 50.5634 29.0593L51.5736 25.0725C51.6186 24.9047 51.6244 24.7287 51.5905 24.5582C51.5566 24.3877 51.484 24.2273 51.3782 24.0894C51.265 23.9508 51.1224 23.8392 50.9606 23.7628C50.7988 23.6863 50.622 23.6469 50.4431 23.6474H44.6885C44.5394 23.6474 44.3964 23.5882 44.291 23.4828C44.1855 23.3773 44.1263 23.2343 44.1263 23.0852C44.1218 23.0083 44.133 22.9314 44.1592 22.859C44.1853 22.7866 44.2259 22.7203 44.2785 22.664C44.3311 22.6078 44.3946 22.5628 44.465 22.5319C44.5355 22.5009 44.6116 22.4846 44.6885 22.4839H50.4431C50.795 22.4881 51.1414 22.5713 51.4568 22.7275C51.7722 22.8836 52.0484 23.1086 52.2651 23.3859C52.4811 23.6612 52.63 23.983 52.6999 24.3259C52.7699 24.6688 52.7589 25.0233 52.668 25.3612L51.6488 29.3599C51.4338 30.2042 51.0424 30.9933 50.5003 31.6753C49.9583 32.3573 49.2778 32.9166 48.5039 33.3166L44.9682 35.1416C44.8826 35.1876 44.7853 35.2075 44.6885 35.1987V35.1867Z" fill="#F9B54C"/>
<path fill-rule="evenodd" clip-rule="evenodd" d="M40.0015 38.3588C38.1635 38.3573 36.4006 37.6297 35.0964 36.3346C33.7923 35.0395 33.0526 33.2816 33.0383 31.4437L32.9541 20.6651H47.0459L46.9557 31.4647V31.8315C46.9598 31.889 46.9506 31.9466 46.9287 31.9999V31.9999V32.1683C46.9287 32.2224 46.8986 32.2795 46.8986 32.3366C46.8936 32.4506 46.8754 32.5636 46.8445 32.6734V32.7004C46.8445 32.7575 46.8144 32.8117 46.8144 32.8688C46.7874 33.0372 46.7302 33.1695 46.7032 33.3468H46.6761C46.6761 33.401 46.646 33.4581 46.646 33.5152C46.1991 34.9273 45.313 36.1598 44.1167 37.0332C42.9205 37.9066 41.4766 38.3752 39.9955 38.3708L40.0015 38.3588Z" fill="#FFD05B"/>
<path d="M44.6855 42.6519H35.311V43.7463H44.6855V42.6519Z" fill="#FEE187"/>
<path fill-rule="evenodd" clip-rule="evenodd" d="M32.9538 45.1234H47.0457C47.0449 44.6842 46.8701 44.2633 46.5596 43.9528C46.2491 43.6423 45.8282 43.4675 45.389 43.4667H34.6285C34.1866 43.4667 33.7624 43.6403 33.4474 43.9503C33.1324 44.2602 32.9519 44.6815 32.9448 45.1234H32.9538Z" fill="#FFD05B"/>
<path d="M49.2318 45.0364H30.7925V51.2389H49.2318V45.0364Z" fill="#E6E9EE"/>
<path d="M43.9551 46.8071H36.0688V49.4469H43.9551V46.8071Z" fill="#BA7958"/>
<path fill-rule="evenodd" clip-rule="evenodd" d="M36.7333 48.4065C36.8027 48.3998 36.867 48.3674 36.9137 48.3156C36.9605 48.2639 36.9862 48.1966 36.9859 48.1269C36.9859 48.0599 36.9593 47.9957 36.9119 47.9483C36.8645 47.901 36.8003 47.8744 36.7333 47.8744C36.6629 47.8726 36.5945 47.8977 36.5419 47.9446C36.4894 47.9916 36.4568 48.0568 36.4507 48.1269C36.4557 48.1999 36.4872 48.2686 36.5392 48.3201C36.5912 48.3716 36.6602 48.4023 36.7333 48.4065V48.4065Z" fill="#FEFEFE"/>
<path fill-rule="evenodd" clip-rule="evenodd" d="M43.3688 48.4067C43.4384 48.4007 43.5032 48.3685 43.5501 48.3166C43.5969 48.2647 43.6224 48.197 43.6213 48.1271C43.6213 48.0602 43.5947 47.9959 43.5474 47.9485C43.5 47.9012 43.4358 47.8746 43.3688 47.8746C43.3018 47.8746 43.2376 47.9012 43.1902 47.9485C43.1428 47.9959 43.1162 48.0602 43.1162 48.1271C43.1152 48.197 43.1407 48.2647 43.1876 48.3166C43.2344 48.3685 43.2992 48.4007 43.3688 48.4067V48.4067Z" fill="#FEFEFE"/>
</g>
<path d="M89.5 43V28.68H95.88C97.3333 28.68 98.46 29.0333 99.26 29.74C100.127 30.4867 100.56 31.3933 100.56 32.46C100.56 33.0733 100.407 33.6067 100.1 34.06C99.8067 34.5 99.3067 34.9467 98.6 35.4C100.173 36.3333 100.96 37.4933 100.96 38.88C100.96 40.1333 100.487 41.16 99.54 41.96C98.7133 42.6533 97.5133 43 95.94 43H89.5ZM92.44 31.14V34.38H95.66C97.0333 34.38 97.72 33.84 97.72 32.76C97.72 31.68 97.0333 31.14 95.66 31.14H92.44ZM92.44 36.84V40.54H95.96C97.4133 40.54 98.14 39.9267 98.14 38.7C98.14 37.46 97.4133 36.84 95.96 36.84H92.44ZM112.245 42.3V43H109.245C109.045 42.7467 108.939 42.3867 108.925 41.92C108.192 42.7867 107.125 43.22 105.725 43.22C104.699 43.22 103.872 42.9067 103.245 42.28C102.739 41.7733 102.485 41.0733 102.485 40.18C102.485 38.8467 103.019 37.9 104.085 37.34C104.539 37.1 105.439 36.86 106.785 36.62L108.945 36.22L108.925 35.46C108.912 34.7533 108.379 34.4 107.325 34.4C106.645 34.4 106.165 34.5067 105.885 34.72C105.619 34.92 105.452 35.2933 105.385 35.84H102.745C102.905 33.4 104.412 32.18 107.265 32.18C108.839 32.18 109.972 32.46 110.665 33.02C111.292 33.5533 111.605 34.36 111.605 35.44V41.36C111.605 41.84 111.819 42.1533 112.245 42.3ZM108.945 37.88L106.925 38.34C106.352 38.4733 105.925 38.6667 105.645 38.92C105.379 39.1733 105.245 39.4867 105.245 39.86C105.245 40.62 105.739 41 106.725 41C108.152 41 108.885 40.22 108.925 38.66L108.945 37.88ZM123.063 36.28H120.443C120.283 35.5867 120.05 35.1 119.743 34.82C119.45 34.54 119.03 34.4 118.483 34.4C117.657 34.4 117.083 34.6933 116.763 35.28C116.417 35.96 116.243 36.7933 116.243 37.78C116.243 38.78 116.437 39.5733 116.823 40.16C117.223 40.7333 117.77 41.02 118.463 41.02C119.01 41.02 119.43 40.88 119.723 40.6C120.03 40.3067 120.27 39.8267 120.443 39.16H123.063C122.93 40.4933 122.397 41.5267 121.463 42.26C120.65 42.9133 119.643 43.24 118.443 43.24C116.763 43.24 115.49 42.7 114.623 41.62C113.863 40.6867 113.483 39.4267 113.483 37.84C113.483 35.92 113.983 34.4667 114.983 33.48C115.85 32.6133 117.023 32.18 118.503 32.18C119.917 32.18 121.037 32.5867 121.863 33.4C122.57 34.12 122.97 35.08 123.063 36.28ZM124.982 28.68H127.742V33.9C128.489 32.7533 129.522 32.18 130.842 32.18C131.776 32.18 132.562 32.4533 133.202 33C133.936 33.6 134.302 34.5533 134.302 35.86V43H131.542V36.42C131.542 35.1533 130.982 34.52 129.862 34.52C129.236 34.52 128.722 34.7133 128.322 35.1C127.936 35.4867 127.742 35.9867 127.742 36.6V43H124.982V28.68ZM146.038 38.42H138.918C138.958 39.2733 139.091 39.88 139.318 40.24C139.705 40.8267 140.311 41.12 141.138 41.12C142.165 41.12 142.851 40.6933 143.198 39.84H145.918C145.611 40.88 145.011 41.7067 144.118 42.32C143.238 42.92 142.205 43.22 141.018 43.22C139.405 43.22 138.165 42.68 137.298 41.6C136.538 40.6533 136.158 39.4067 136.158 37.86C136.158 35.98 136.651 34.5267 137.638 33.5C138.505 32.62 139.645 32.18 141.058 32.18C142.138 32.18 143.085 32.4467 143.898 32.98C144.711 33.5133 145.291 34.26 145.638 35.22C145.918 35.9667 146.058 36.8667 146.058 37.92C146.058 38.0533 146.051 38.22 146.038 38.42ZM143.178 36.6C143.045 35.0533 142.331 34.28 141.038 34.28C139.825 34.28 139.131 35.0533 138.958 36.6H143.178ZM150.79 28.68V43H148.03V28.68H150.79ZM158.139 32.18C159.885 32.18 161.225 32.74 162.159 33.86C162.972 34.82 163.379 36.1 163.379 37.7C163.379 39.54 162.852 40.9533 161.799 41.94C160.879 42.7933 159.659 43.22 158.139 43.22C156.392 43.22 155.052 42.6667 154.119 41.56C153.305 40.5867 152.899 39.3 152.899 37.7C152.899 35.8733 153.425 34.4667 154.479 33.48C155.399 32.6133 156.619 32.18 158.139 32.18ZM158.139 34.4C157.392 34.4 156.792 34.7067 156.339 35.32C155.885 35.92 155.659 36.7133 155.659 37.7C155.659 38.7667 155.912 39.6067 156.419 40.22C156.872 40.74 157.445 41 158.139 41C158.885 41 159.485 40.7 159.939 40.1C160.405 39.4867 160.639 38.6867 160.639 37.7C160.639 36.6467 160.379 35.8133 159.859 35.2C159.405 34.6667 158.832 34.4 158.139 34.4ZM165.412 32.4H168.172V34.42C168.519 32.9267 169.505 32.18 171.132 32.18C171.385 32.18 171.565 32.18 171.672 32.18L171.692 34.9C171.359 34.8333 171.012 34.8 170.652 34.8C169.745 34.8 169.119 34.9667 168.772 35.3C168.372 35.6733 168.172 36.3467 168.172 37.32V43H165.412V32.4ZM181.869 35.52H179.069C179.055 35.0933 178.902 34.7933 178.609 34.62C178.315 34.4333 177.809 34.34 177.089 34.34C176.035 34.34 175.509 34.6467 175.509 35.26C175.509 35.62 175.829 35.8867 176.469 36.06L179.949 37.04C181.335 37.4267 182.029 38.3067 182.029 39.68C182.029 40.76 181.609 41.6333 180.769 42.3C179.982 42.9133 178.849 43.22 177.369 43.22C175.555 43.22 174.255 42.9533 173.469 42.42C172.695 41.9133 172.282 41.0933 172.229 39.96H174.969C175.049 40.4 175.235 40.6933 175.529 40.84C175.835 40.9867 176.395 41.06 177.209 41.06C178.582 41.06 179.269 40.7333 179.269 40.08C179.269 39.6933 178.962 39.4067 178.349 39.22L175.069 38.22C174.229 37.9667 173.655 37.6733 173.349 37.34C172.949 36.9267 172.749 36.3667 172.749 35.66C172.749 34.5 173.189 33.6067 174.069 32.98C174.842 32.4467 175.855 32.18 177.109 32.18C178.629 32.18 179.829 32.52 180.709 33.2C181.469 33.8 181.855 34.5733 181.869 35.52Z" fill="#585A66"/>
<defs>
<filter id="filter0_d_607_2197" x="0" y="0" width="80" height="80" filterUnits="userSpaceOnUse" color-interpolation-filters="sRGB">
<feFlood flood-opacity="0" result="BackgroundImageFix"/>
<feColorMatrix in="SourceAlpha" type="matrix" values="0 0 0 0 0 0 0 0 0 0 0 0 0 0 0 0 0 0 127 0" result="hardAlpha"/>
<feOffset dy="4"/>
<feGaussianBlur stdDeviation="4"/>
<feColorMatrix type="matrix" values="0 0 0 0 0.109804 0 0 0 0 0.145098 0 0 0 0 0.172549 0 0 0 0.05 0"/>
<feBlend mode="normal" in2="BackgroundImageFix" result="effect1_dropShadow_607_2197"/>
<feBlend mode="normal" in="SourceGraphic" in2="effect1_dropShadow_607_2197" result="shape"/>
</filter>
<clipPath id="clip0_607_2197">
<rect width="48" height="48" fill="white" transform="translate(16 12)"/>
</clipPath>
</defs>
</svg>
