<svg width="129" height="129" viewBox="0 0 129 129" fill="none" xmlns="http://www.w3.org/2000/svg">
<g filter="url(#filter0_d_274_1072)">
<rect x="8" y="4" width="113" height="113" rx="24" fill="white"/>
</g>
<g clip-path="url(#clip0_274_1072)">
<path d="M51.3457 65.8309C51.2665 65.5961 51.1873 65.3614 51.1202 65.1266C51.1033 65.0844 51.089 65.041 51.0776 64.9969C51.0227 64.7992 50.9679 64.6015 50.9253 64.3792C50.9102 64.3284 50.898 64.2769 50.8887 64.2247C50.8278 63.9653 50.7729 63.6996 50.7303 63.434C50.7303 63.3969 50.7303 63.3599 50.7303 63.3228C50.7303 63.1683 50.6876 63.0139 50.6633 62.8595C50.6633 62.81 50.6633 62.7606 50.6633 62.7174C50.6633 62.495 50.6145 62.2664 50.5963 62.0378C50.5963 61.9513 50.5963 61.8587 50.5963 61.766C50.5963 61.5127 50.5963 61.2533 50.5963 60.9938C50.5963 60.617 50.5962 60.2463 50.645 59.8757C50.645 59.8263 50.645 59.7707 50.645 59.7151C50.8638 56.9813 51.8584 54.3702 53.5086 52.1969C53.2799 49.6816 52.7939 47.1972 52.0585 44.7838C49.2558 36.7529 43.5834 36.9012 39.7571 41.2378C35.1078 47.2247 32.7205 54.6985 33.0255 62.3122C33.3305 69.9259 36.3076 77.1788 41.4204 82.7637C42.2856 83.4803 44.5826 84.7961 48.2261 82.5598C52.9176 79.6749 53.3197 72.1259 51.9732 67.3382C51.7386 66.8471 51.5291 66.344 51.3457 65.8309Z" fill="url(#paint0_linear_274_1072)"/>
<path d="M77.6548 56.1629C77.7401 56.3977 77.8132 56.6324 77.8863 56.8734L77.9229 57.0031C77.9777 57.2008 78.0325 57.3985 78.0813 57.6209L78.1178 57.7753C78.1788 58.0409 78.2275 58.3004 78.2763 58.566V58.6772C78.2763 58.8317 78.325 58.9861 78.3433 59.1405V59.2826C78.3433 59.5112 78.392 59.7336 78.4103 59.9622V60.234C78.4103 60.4873 78.4103 60.7467 78.4103 61.0062C78.4103 61.383 78.4103 61.7537 78.3615 62.1243C78.3615 62.1799 78.3615 62.2293 78.3615 62.2849C78.1192 65.0222 77.0991 67.6294 75.4248 69.7907C75.6593 72.3052 76.1452 74.789 76.8749 77.2039C79.6776 85.2348 85.35 85.0865 89.1763 80.7498C93.8346 74.7709 96.2335 67.3016 95.9408 59.688C95.6481 52.0744 92.6831 44.8171 87.58 39.2239C86.7209 38.5073 84.4178 37.1915 80.7804 39.4278C76.0828 42.3127 75.6807 49.8618 77.0272 54.6494C77.2647 55.1414 77.4742 55.6467 77.6548 56.1629Z" fill="url(#paint1_linear_274_1072)"/>
<g style="mix-blend-mode:screen">
<path d="M96.0002 61C96.0157 52.9219 93.0062 45.1389 87.5799 39.2239C86.7208 38.5073 84.4177 37.1915 80.7803 39.4278C79.003 40.6044 77.7047 42.3924 77.1246 44.4626C77.7559 42.6331 78.9718 41.0698 80.5792 40.0209C84.2349 37.7907 86.5198 39.1004 87.3788 39.8232C91.2726 44.0732 93.9532 49.3168 95.1337 54.9927C96.3143 60.6686 95.9504 66.5632 94.081 72.0456C95.3588 68.5075 96.0086 64.7679 96.0002 61ZM75.5283 70.0378C76.3521 68.9068 77.0051 67.6575 77.4658 66.3313C76.9734 67.5737 76.3086 68.7386 75.4917 69.7907L75.5283 70.0378Z" fill="url(#paint2_linear_274_1072)"/>
</g>
<path d="M89.9684 79.8788C86.1665 85.0556 79.9274 85.7598 76.9419 77.2286C76.2062 74.7984 75.7203 72.2976 75.4918 69.766C74.8825 64.2062 74.5901 57.2378 74.3342 50.9181C74.0783 44.5984 73.8285 38.8718 73.1948 36.0425C71.7691 29.7042 66.054 29.0618 64.7501 29H64.4881C59.5259 28.9972 54.6332 30.1838 50.2093 32.4631C45.7855 34.7423 41.9556 38.0495 39.0322 42.1151C42.8281 36.9382 49.0732 36.234 52.0526 44.7653C52.7906 47.1949 53.2766 49.6959 53.5027 52.2278C54.1486 57.7876 54.4106 64.756 54.6604 71.0757C54.9102 77.3954 55.1722 83.122 55.8058 85.9514C57.2255 92.2896 62.9466 92.9321 64.2444 92.9938H64.5125C69.4745 92.9951 74.3666 91.8078 78.7903 89.5287C83.2139 87.2496 87.044 83.9432 89.9684 79.8788Z" fill="url(#paint3_linear_274_1072)"/>
<g style="mix-blend-mode:screen" opacity="0.6">
<path d="M89.152 80.8734C88.9022 81.207 88.6584 81.5406 88.3964 81.8556C88.9448 81.2378 89.4749 80.5645 89.9684 79.8788C89.7064 80.2309 89.4322 80.5645 89.152 80.8734ZM89.152 80.8734C85.3257 85.0989 79.7324 85.1544 76.9663 77.2162C76.2306 74.786 75.7446 72.2852 75.5162 69.7537C74.9069 64.1938 74.6144 57.2255 74.3585 50.9058C74.1026 44.5861 73.8528 38.8595 73.2192 36.0301C71.7934 29.6919 66.0784 29.0494 64.7745 28.9876H64.5125C59.8571 28.986 55.2594 30.0313 51.0504 32.0481C46.8414 34.0649 43.1259 37.0031 40.1716 40.651C43.1275 37.1623 46.7921 34.3625 50.9144 32.4432C55.0367 30.524 59.5194 29.5307 64.0555 29.5313H64.3175C65.6214 29.5931 71.3426 30.2355 72.7622 36.5737C73.3715 39.4031 73.6518 45.0803 73.9016 51.4494C74.1514 57.8185 74.4195 64.7498 75.0592 70.2973C75.2912 72.8263 75.7771 75.3247 76.5093 77.7537C79.379 86.0193 85.3378 85.6239 89.1398 80.8857L89.152 80.8734ZM39.0322 42.1151C39.1541 41.9544 39.2759 41.7938 39.4039 41.6394C39.2759 41.8062 39.1541 41.9544 39.0322 42.1151Z" fill="#2FD1C5"/>
</g>
<g style="mix-blend-mode:multiply">
<path d="M50.9499 57.5035C51.4304 55.5775 52.302 53.7744 53.5089 52.2093C53.2802 49.694 52.7942 47.2096 52.0588 44.7961C49.2561 36.7653 43.5836 36.9135 39.7573 41.2502C39.7573 41.2193 48.3421 34.1336 50.9499 57.5035Z" fill="#2FD1C5"/>
</g>
</g>
<defs>
<filter id="filter0_d_274_1072" x="0" y="0" width="129" height="129" filterUnits="userSpaceOnUse" color-interpolation-filters="sRGB">
<feFlood flood-opacity="0" result="BackgroundImageFix"/>
<feColorMatrix in="SourceAlpha" type="matrix" values="0 0 0 0 0 0 0 0 0 0 0 0 0 0 0 0 0 0 127 0" result="hardAlpha"/>
<feOffset dy="4"/>
<feGaussianBlur stdDeviation="4"/>
<feColorMatrix type="matrix" values="0 0 0 0 0.109804 0 0 0 0 0.145098 0 0 0 0 0.172549 0 0 0 0.05 0"/>
<feBlend mode="normal" in2="BackgroundImageFix" result="effect1_dropShadow_274_1072"/>
<feBlend mode="normal" in="SourceGraphic" in2="effect1_dropShadow_274_1072" result="shape"/>
</filter>
<linearGradient id="paint0_linear_274_1072" x1="43.2541" y1="38.2841" x2="43.2541" y2="83.8055" gradientUnits="userSpaceOnUse">
<stop stop-color="#2FD1C5"/>
<stop offset="1" stop-color="#80E3DC"/>
</linearGradient>
<linearGradient id="paint1_linear_274_1072" x1="85.6948" y1="38.1822" x2="85.6948" y2="83.7035" gradientUnits="userSpaceOnUse">
<stop stop-color="#2FD1C5"/>
<stop offset="1" stop-color="#80E3DC"/>
</linearGradient>
<linearGradient id="paint2_linear_274_1072" x1="85.746" y1="38.1822" x2="85.746" y2="72.0456" gradientUnits="userSpaceOnUse">
<stop stop-color="#2FD1C5"/>
<stop offset="1" stop-color="#80E3DC"/>
</linearGradient>
<linearGradient id="paint3_linear_274_1072" x1="47.6232" y1="36.1042" x2="84.2227" y2="85.6615" gradientUnits="userSpaceOnUse">
<stop stop-color="#00698C"/>
<stop offset="1" stop-color="#0098CB"/>
</linearGradient>
<clipPath id="clip0_274_1072">
<rect width="63" height="64" fill="white" transform="translate(33 29)"/>
</clipPath>
</defs>
</svg>
    