<svg width="64" height="64" viewBox="0 0 64 64" fill="none" xmlns="http://www.w3.org/2000/svg">
<g filter="url(#filter0_d_244_1562)">
<rect x="8" y="4" width="48" height="48" rx="8" fill="white"/>
<rect x="8.5" y="4.5" width="47" height="47" rx="7.5" stroke="#E4EDFF"/>
</g>
<path d="M39.1998 29.6H33.5998V35.2M42.3998 29.6H43.9998M39.1998 39.2H35.9998H32.7998M37.5998 34.4H43.1998V40M24.7998 21.6H26.3998M37.5998 21.6H39.1998M24.7998 34.4H26.3998M22.3998 16.8H28.7998C29.6835 16.8 30.3998 17.5164 30.3998 18.4V24.8C30.3998 25.6837 29.6835 26.4 28.7998 26.4H22.3998C21.5161 26.4 20.7998 25.6837 20.7998 24.8V18.4C20.7998 17.5164 21.5161 16.8 22.3998 16.8ZM35.1998 16.8H41.5998C42.4835 16.8 43.1998 17.5164 43.1998 18.4V24.8C43.1998 25.6837 42.4835 26.4 41.5998 26.4H35.1998C34.3161 26.4 33.5998 25.6837 33.5998 24.8V18.4C33.5998 17.5164 34.3161 16.8 35.1998 16.8ZM22.3998 29.6H28.7998C29.6835 29.6 30.3998 30.3164 30.3998 31.2V37.6C30.3998 38.4837 29.6835 39.2 28.7998 39.2H22.3998C21.5161 39.2 20.7998 38.4837 20.7998 37.6V31.2C20.7998 30.3164 21.5161 29.6 22.3998 29.6Z" stroke="#00394C"/>
<defs>
<filter id="filter0_d_244_1562" x="0" y="0" width="64" height="64" filterUnits="userSpaceOnUse" color-interpolation-filters="sRGB">
<feFlood flood-opacity="0" result="BackgroundImageFix"/>
<feColorMatrix in="SourceAlpha" type="matrix" values="0 0 0 0 0 0 0 0 0 0 0 0 0 0 0 0 0 0 127 0" result="hardAlpha"/>
<feOffset dy="4"/>
<feGaussianBlur stdDeviation="4"/>
<feColorMatrix type="matrix" values="0 0 0 0 0.109804 0 0 0 0 0.145098 0 0 0 0 0.172549 0 0 0 0.05 0"/>
<feBlend mode="normal" in2="BackgroundImageFix" result="effect1_dropShadow_244_1562"/>
<feBlend mode="normal" in="SourceGraphic" in2="effect1_dropShadow_244_1562" result="shape"/>
</filter>
</defs>
</svg>
