<svg width="80" height="80" viewBox="0 0 80 80" fill="none" xmlns="http://www.w3.org/2000/svg">
<g filter="url(#filter0_d_607_2198)">
<rect x="8" y="4" width="64" height="64" rx="8" fill="#E48FFF"/>
</g>
<g clip-path="url(#clip0_607_2198)">
<path fill-rule="evenodd" clip-rule="evenodd" d="M64.003 36.0015C64.0036 31.2543 62.5964 26.6136 59.9595 22.6661C57.3225 18.7187 53.5742 15.6419 49.1886 13.8248C44.8029 12.0078 39.9769 11.532 35.3209 12.4578C30.6649 13.3835 26.3879 15.6692 23.031 19.0258C19.674 22.3823 17.3878 26.659 16.4614 31.3149C15.5351 35.9708 16.0102 40.7969 17.8267 45.1828C19.6433 49.5686 22.7196 53.3173 26.6667 55.9548C30.6138 58.5922 35.2543 60 40.0015 60C46.3624 59.9865 52.459 57.4538 56.9572 52.9562C61.4553 48.4587 63.9887 42.3624 64.003 36.0015Z" fill="white"/>
<path fill-rule="evenodd" clip-rule="evenodd" d="M42.5239 27.3275H37.3887L30.8193 13.825C32.2753 13.2305 33.7857 12.7794 35.3292 12.478L39.9864 22.078L40.287 22.6974L40.5667 23.2987L41.9707 26.188L42.2534 26.7893L42.5239 27.3275Z" fill="#F1543F"/>
<path fill-rule="evenodd" clip-rule="evenodd" d="M42.6566 32.1832H37.3319C37.2483 32.186 37.1662 32.1596 37.0999 32.1086C37.0335 32.0576 36.9869 31.9851 36.9681 31.9035L35.9008 28.5332C35.8286 28.3008 35.8138 28.0544 35.8578 27.8151C35.9018 27.5757 36.0032 27.3506 36.1534 27.1592C36.2963 26.9662 36.4826 26.8096 36.6973 26.702C36.912 26.5944 37.1489 26.5389 37.3891 26.5398H42.6115C42.8555 26.5386 43.0964 26.5939 43.3155 26.7014C43.5346 26.8088 43.7258 26.9655 43.8743 27.1592C44.0252 27.3503 44.1249 27.5769 44.1638 27.8173C44.2027 28.0577 44.1796 28.3041 44.0967 28.5332L43.0865 31.9035C43.0487 31.9842 42.9894 32.0529 42.9152 32.1022C42.8409 32.1515 42.7546 32.1795 42.6656 32.1832H42.6566ZM37.5755 31.3984H42.386L43.312 28.3107C43.3578 28.1992 43.3717 28.0771 43.352 27.9582C43.3324 27.8392 43.28 27.7281 43.2008 27.6372C43.1315 27.5386 43.0384 27.4593 42.93 27.4067C42.8217 27.3541 42.7017 27.33 42.5814 27.3366H37.3891C37.2733 27.3412 37.1597 27.3704 37.0561 27.4222C36.9524 27.4741 36.8609 27.5473 36.7877 27.6372C36.7138 27.7309 36.6646 27.8417 36.6447 27.9594C36.6247 28.077 36.6346 28.1978 36.6735 28.3107L37.5755 31.3984Z" fill="white"/>
<path fill-rule="evenodd" clip-rule="evenodd" d="M53.2485 43.3556C53.4422 43.165 53.5961 42.9378 53.7011 42.6872C53.8061 42.4366 53.8602 42.1676 53.8602 41.8959C53.8602 41.6242 53.8061 41.3552 53.7011 41.1045C53.5961 40.8539 53.4422 40.6267 53.2485 40.4362C52.9528 40.1468 52.7536 39.7732 52.6783 39.3663C52.6029 38.9595 52.6551 38.5393 52.8276 38.1632C53.0324 37.649 53.0264 37.0747 52.8109 36.5649C52.5954 36.055 52.1877 35.6506 51.6761 35.4393C51.2941 35.2876 50.9667 35.0242 50.7366 34.6837C50.5065 34.3431 50.3844 33.9411 50.3862 33.5301C50.3761 32.9834 50.1536 32.462 49.7659 32.0765C49.3781 31.691 48.8555 31.4715 48.3087 31.4646C47.8959 31.4595 47.4933 31.335 47.1497 31.1061C46.8061 30.8772 46.5362 30.5537 46.3725 30.1747C46.2713 29.9208 46.1208 29.6894 45.9297 29.4939C45.7387 29.2984 45.5108 29.1426 45.2593 29.0355C45.0077 28.9285 44.7375 28.8723 44.4641 28.8702C44.1908 28.8681 43.9197 28.9201 43.6665 29.0232C43.2876 29.1806 42.8711 29.2246 42.4676 29.1499C42.0642 29.0752 41.691 28.8849 41.3936 28.6023C41.2035 28.4029 40.9749 28.2442 40.7217 28.1357C40.4684 28.0273 40.1958 27.9714 39.9204 27.9714C39.6449 27.9714 39.3723 28.0273 39.119 28.1357C38.8658 28.2442 38.6372 28.4029 38.4471 28.6023C38.1573 28.8973 37.7837 29.0959 37.377 29.1712C36.9704 29.2465 36.5504 29.1949 36.1742 29.0232C35.921 28.9201 35.6499 28.8681 35.3766 28.8702C35.1032 28.8723 34.833 28.9285 34.5814 29.0355C34.3299 29.1426 34.102 29.2984 33.911 29.4939C33.7199 29.6894 33.5694 29.9208 33.4682 30.1747C33.3156 30.5579 33.0508 30.8861 32.7086 31.1162C32.3663 31.3464 31.9625 31.4678 31.55 31.4646C31.0012 31.4716 30.4769 31.6927 30.0887 32.0808C29.7006 32.4689 29.4795 32.9933 29.4725 33.5421C29.4707 33.9523 29.3471 34.3527 29.1175 34.6926C28.8879 35.0324 28.5625 35.2965 28.1827 35.4513C27.9292 35.5553 27.6988 35.7085 27.5049 35.9021C27.311 36.0956 27.1573 36.3256 27.0527 36.5789C26.9482 36.8322 26.8948 37.1036 26.8958 37.3776C26.8967 37.6516 26.9519 37.9227 27.0582 38.1752C27.2099 38.5571 27.2483 38.9746 27.1688 39.3777C27.0894 39.7808 26.8954 40.1525 26.6102 40.4482C26.4165 40.6388 26.2627 40.866 26.1576 41.1166C26.0526 41.3672 25.9985 41.6362 25.9985 41.9079C25.9985 42.1796 26.0526 42.4486 26.1576 42.6993C26.2627 42.9499 26.4165 43.1771 26.6102 43.3676C26.9032 43.6585 27.1024 44.0304 27.1823 44.4355C27.2621 44.8406 27.2189 45.2603 27.0582 45.6406C26.9523 45.8932 26.8975 46.1642 26.8967 46.4381C26.896 46.7119 26.9494 46.9833 27.0539 47.2364C27.1584 47.4896 27.3119 47.7196 27.5056 47.9132C27.6994 48.1068 27.9295 48.2602 28.1827 48.3645C28.5647 48.5154 28.8922 48.778 29.1223 49.1182C29.3525 49.4583 29.4745 49.86 29.4725 50.2707C29.4795 50.8195 29.7006 51.3439 30.0887 51.732C30.4769 52.1201 31.0012 52.3412 31.55 52.3482C31.9636 52.3517 32.3672 52.4758 32.7112 52.7055C33.0552 52.9352 33.3246 53.2604 33.4863 53.6411C33.5871 53.8953 33.7374 54.1269 33.9285 54.3225C34.1195 54.5182 34.3475 54.6739 34.5992 54.7808C34.8509 54.8876 35.1214 54.9434 35.3948 54.9449C35.6683 54.9464 35.9393 54.8936 36.1922 54.7896C36.5694 54.6368 36.9826 54.5958 37.3824 54.6715C37.7823 54.7472 38.1519 54.9364 38.4471 55.2165C38.6372 55.4159 38.8658 55.5746 39.119 55.6831C39.3723 55.7915 39.6449 55.8475 39.9204 55.8475C40.1958 55.8475 40.4684 55.7915 40.7217 55.6831C40.9749 55.5746 41.2035 55.4159 41.3936 55.2165C41.6826 54.9203 42.0561 54.7205 42.4629 54.6447C42.8698 54.5688 43.2902 54.6204 43.6665 54.7926C43.9194 54.8966 44.1905 54.9495 44.4639 54.9479C44.7374 54.9464 45.0078 54.8906 45.2595 54.7838C45.5112 54.677 45.7392 54.5212 45.9303 54.3256C46.1213 54.1299 46.2716 53.8983 46.3725 53.6441C46.5341 53.2634 46.8035 52.9382 47.1475 52.7085C47.4915 52.4788 47.8951 52.3547 48.3087 52.3513C48.8575 52.3442 49.3819 52.1231 49.77 51.735C50.1581 51.3469 50.3792 50.8225 50.3862 50.2737C50.3883 49.864 50.5119 49.464 50.7416 49.1247C50.9712 48.7853 51.2964 48.5218 51.6761 48.3675C52.1877 48.1562 52.5954 47.7518 52.8109 47.2419C53.0264 46.7321 53.0324 46.1578 52.8276 45.6436C52.661 45.2663 52.6121 44.8476 52.6872 44.4421C52.7623 44.0366 52.9579 43.6632 53.2485 43.3706V43.3556Z" fill="#FFD05B"/>
<path fill-rule="evenodd" clip-rule="evenodd" d="M49.7972 41.8944C49.7942 39.9425 49.2124 38.0354 48.1254 36.4142C47.0384 34.793 45.495 33.5306 43.6905 32.7867C41.8859 32.0428 39.9013 31.8507 37.9876 32.2349C36.0739 32.619 34.3171 33.5621 32.9394 34.9448C31.5618 36.3275 30.6251 38.0877 30.248 40.0028C29.8708 41.9179 30.0701 43.9018 30.8206 45.7037C31.5712 47.5055 32.8392 49.0442 34.4643 50.1253C36.0895 51.2064 37.9988 51.7812 39.9506 51.777C42.5674 51.7722 45.0753 50.7285 46.9228 48.8754C48.7703 47.0222 49.8064 44.5112 49.8032 41.8944H49.7972Z" fill="#F9B54C"/>
<path fill-rule="evenodd" clip-rule="evenodd" d="M49.1504 13.825L42.581 27.3275H37.4458L37.7254 26.7653L37.978 26.164L39.4091 23.2747L39.6917 22.6733L39.9924 22.054L44.6526 12.454C46.1896 12.7579 47.6938 13.209 49.1444 13.8009L49.1504 13.825Z" fill="#FF7058"/>
</g>
<defs>
<filter id="filter0_d_607_2198" x="0" y="0" width="80" height="80" filterUnits="userSpaceOnUse" color-interpolation-filters="sRGB">
<feFlood flood-opacity="0" result="BackgroundImageFix"/>
<feColorMatrix in="SourceAlpha" type="matrix" values="0 0 0 0 0 0 0 0 0 0 0 0 0 0 0 0 0 0 127 0" result="hardAlpha"/>
<feOffset dy="4"/>
<feGaussianBlur stdDeviation="4"/>
<feColorMatrix type="matrix" values="0 0 0 0 0.109804 0 0 0 0 0.145098 0 0 0 0 0.172549 0 0 0 0.05 0"/>
<feBlend mode="normal" in2="BackgroundImageFix" result="effect1_dropShadow_607_2198"/>
<feBlend mode="normal" in="SourceGraphic" in2="effect1_dropShadow_607_2198" result="shape"/>
</filter>
<clipPath id="clip0_607_2198">
<rect width="48" height="48" fill="white" transform="translate(16 12)"/>
</clipPath>
</defs>
</svg>
