<svg width="53" height="38" viewBox="0 0 53 38" fill="none" xmlns="http://www.w3.org/2000/svg">
<path d="M17.8335 14H35.1668M19.8335 14V7.33329C19.8335 3.65139 22.8183 0.666626 26.5002 0.666626C30.1821 0.666626 33.1668 3.65139 33.1668 7.33329V14M23.8335 16V16.6666C23.8335 18.1394 25.0274 19.3333 26.5002 19.3333C27.9729 19.3333 29.1668 18.1394 29.1668 16.6666V16" stroke="#00394C"/>
<path d="M6.10258 32.95H6.12258V26.92H6.84258V34H5.94258L1.82258 27.91H1.80258V34H1.08258V26.92H1.98258L6.10258 32.95ZM13.3293 31.66C13.3293 32.0133 13.266 32.34 13.1393 32.64C13.0193 32.94 12.8493 33.2 12.6293 33.42C12.4093 33.64 12.146 33.8133 11.8393 33.94C11.5326 34.06 11.196 34.12 10.8293 34.12C10.4693 34.12 10.136 34.06 9.8293 33.94C9.52263 33.8133 9.2593 33.64 9.0393 33.42C8.8193 33.2 8.64596 32.94 8.5193 32.64C8.3993 32.34 8.3393 32.0133 8.3393 31.66C8.3393 31.3067 8.3993 30.98 8.5193 30.68C8.64596 30.38 8.8193 30.12 9.0393 29.9C9.2593 29.68 9.52263 29.51 9.8293 29.39C10.136 29.2633 10.4693 29.2 10.8293 29.2C11.196 29.2 11.5326 29.2633 11.8393 29.39C12.146 29.51 12.4093 29.68 12.6293 29.9C12.8493 30.12 13.0193 30.38 13.1393 30.68C13.266 30.98 13.3293 31.3067 13.3293 31.66ZM12.6093 31.66C12.6093 31.4 12.566 31.1567 12.4793 30.93C12.3993 30.6967 12.2826 30.4967 12.1293 30.33C11.976 30.1567 11.7893 30.02 11.5693 29.92C11.3493 29.82 11.1026 29.77 10.8293 29.77C10.556 29.77 10.3093 29.82 10.0893 29.92C9.87596 30.02 9.69263 30.1567 9.5393 30.33C9.38596 30.4967 9.26596 30.6967 9.1793 30.93C9.0993 31.1567 9.0593 31.4 9.0593 31.66C9.0593 31.92 9.0993 32.1667 9.1793 32.4C9.26596 32.6267 9.38596 32.8267 9.5393 33C9.69263 33.1667 9.87596 33.3 10.0893 33.4C10.3093 33.4933 10.556 33.54 10.8293 33.54C11.1026 33.54 11.3493 33.4933 11.5693 33.4C11.7893 33.3 11.976 33.1667 12.1293 33C12.2826 32.8267 12.3993 32.6267 12.4793 32.4C12.566 32.1667 12.6093 31.92 12.6093 31.66ZM16.9026 29.89H15.5826V32.62C15.5826 32.7933 15.5992 32.9367 15.6326 33.05C15.6659 33.1633 15.7126 33.2533 15.7726 33.32C15.8392 33.38 15.9159 33.4233 16.0026 33.45C16.0892 33.47 16.1826 33.48 16.2826 33.48C16.3759 33.48 16.4726 33.4667 16.5726 33.44C16.6792 33.4133 16.7792 33.3767 16.8726 33.33L16.9026 33.92C16.7826 33.9667 16.6559 34 16.5226 34.02C16.3959 34.0467 16.2559 34.06 16.1026 34.06C15.9759 34.06 15.8426 34.0433 15.7026 34.01C15.5626 33.9767 15.4326 33.9133 15.3126 33.82C15.1926 33.7267 15.0926 33.6 15.0126 33.44C14.9392 33.28 14.9026 33.07 14.9026 32.81V29.89H13.9326V29.32H14.9026V28H15.5826V29.32H16.9026V29.89ZM18.6564 34H17.9764V29.32H18.6564V34ZM18.7964 27.52C18.7964 27.66 18.7464 27.7767 18.6464 27.87C18.5464 27.9567 18.4364 28 18.3164 28C18.1964 28 18.0864 27.9567 17.9864 27.87C17.8864 27.7767 17.8364 27.66 17.8364 27.52C17.8364 27.38 17.8864 27.2667 17.9864 27.18C18.0864 27.0867 18.1964 27.04 18.3164 27.04C18.4364 27.04 18.5464 27.0867 18.6464 27.18C18.7464 27.2667 18.7964 27.38 18.7964 27.52ZM22.4464 29.89H21.3464V34H20.6664V29.89H19.6864V29.32H20.6664V28.04C20.6664 27.5067 20.7964 27.0867 21.0564 26.78C21.3164 26.4733 21.7164 26.32 22.2564 26.32C22.3431 26.32 22.4364 26.3267 22.5364 26.34C22.6364 26.3467 22.7297 26.3633 22.8164 26.39L22.6964 26.99C22.6231 26.97 22.5497 26.9533 22.4764 26.94C22.4031 26.9267 22.3197 26.92 22.2264 26.92C22.0464 26.92 21.8964 26.95 21.7764 27.01C21.6631 27.07 21.5731 27.1567 21.5064 27.27C21.4464 27.3767 21.4031 27.5033 21.3764 27.65C21.3564 27.7967 21.3464 27.9533 21.3464 28.12V29.32H22.4464V29.89ZM24.1056 34H23.4256V29.32H24.1056V34ZM24.2456 27.52C24.2456 27.66 24.1956 27.7767 24.0956 27.87C23.9956 27.9567 23.8856 28 23.7656 28C23.6456 28 23.5356 27.9567 23.4356 27.87C23.3356 27.7767 23.2856 27.66 23.2856 27.52C23.2856 27.38 23.3356 27.2667 23.4356 27.18C23.5356 27.0867 23.6456 27.04 23.7656 27.04C23.8856 27.04 23.9956 27.0867 24.0956 27.18C24.1956 27.2667 24.2456 27.38 24.2456 27.52ZM29.2856 30.39C29.1723 30.21 29.0056 30.0633 28.7856 29.95C28.5723 29.83 28.339 29.77 28.0856 29.77C27.8123 29.77 27.5656 29.82 27.3456 29.92C27.1256 30.0133 26.9356 30.1467 26.7756 30.32C26.6223 30.4867 26.5023 30.6867 26.4156 30.92C26.3356 31.1467 26.2956 31.3933 26.2956 31.66C26.2956 31.9267 26.3356 32.1733 26.4156 32.4C26.5023 32.6267 26.6223 32.8267 26.7756 33C26.929 33.1667 27.1156 33.3 27.3356 33.4C27.5556 33.4933 27.8023 33.54 28.0756 33.54C28.3756 33.54 28.629 33.4833 28.8356 33.37C29.0423 33.2567 29.2123 33.11 29.3456 32.93L29.8556 33.31C29.6556 33.5567 29.409 33.7533 29.1156 33.9C28.829 34.0467 28.4823 34.12 28.0756 34.12C27.6956 34.12 27.3523 34.06 27.0456 33.94C26.739 33.8133 26.4756 33.64 26.2556 33.42C26.0423 33.2 25.8756 32.94 25.7556 32.64C25.6356 32.34 25.5756 32.0133 25.5756 31.66C25.5756 31.3067 25.6356 30.98 25.7556 30.68C25.8756 30.38 26.0423 30.12 26.2556 29.9C26.4756 29.68 26.739 29.51 27.0456 29.39C27.3523 29.2633 27.6956 29.2 28.0756 29.2C28.389 29.2 28.7056 29.27 29.0256 29.41C29.3523 29.5433 29.6156 29.7433 29.8156 30.01L29.2856 30.39ZM33.8656 30.98C33.8656 30.5733 33.759 30.27 33.5456 30.07C33.3323 29.87 33.0223 29.77 32.6156 29.77C32.3356 29.77 32.0756 29.82 31.8356 29.92C31.5956 30.02 31.3923 30.1533 31.2256 30.32L30.8456 29.87C31.039 29.6767 31.2923 29.5167 31.6056 29.39C31.9256 29.2633 32.2856 29.2 32.6856 29.2C32.939 29.2 33.1756 29.2367 33.3956 29.31C33.6156 29.3767 33.809 29.48 33.9756 29.62C34.1423 29.76 34.2723 29.9367 34.3656 30.15C34.459 30.3633 34.5056 30.6133 34.5056 30.9V32.95C34.5056 33.13 34.5123 33.3167 34.5256 33.51C34.539 33.7033 34.559 33.8667 34.5856 34H33.9756C33.9556 33.8867 33.939 33.7633 33.9256 33.63C33.9123 33.4967 33.9056 33.3667 33.9056 33.24H33.8856C33.6723 33.5533 33.429 33.78 33.1556 33.92C32.889 34.0533 32.5656 34.12 32.1856 34.12C32.0056 34.12 31.819 34.0933 31.6256 34.04C31.439 33.9933 31.2656 33.9133 31.1056 33.8C30.9523 33.6867 30.8223 33.54 30.7156 33.36C30.6156 33.18 30.5656 32.96 30.5656 32.7C30.5656 32.34 30.6556 32.0567 30.8356 31.85C31.0223 31.6367 31.269 31.48 31.5756 31.38C31.8823 31.2733 32.2323 31.2067 32.6256 31.18C33.0256 31.1467 33.439 31.13 33.8656 31.13V30.98ZM33.6656 31.66C33.3856 31.66 33.1023 31.6733 32.8156 31.7C32.5356 31.72 32.279 31.7667 32.0456 31.84C31.819 31.9067 31.6323 32.0067 31.4856 32.14C31.339 32.2733 31.2656 32.45 31.2656 32.67C31.2656 32.8367 31.2956 32.9767 31.3556 33.09C31.4223 33.2033 31.509 33.2967 31.6156 33.37C31.7223 33.4367 31.839 33.4867 31.9656 33.52C32.099 33.5467 32.2323 33.56 32.3656 33.56C32.6056 33.56 32.819 33.52 33.0056 33.44C33.1923 33.3533 33.349 33.24 33.4756 33.1C33.6023 32.9533 33.699 32.7867 33.7656 32.6C33.8323 32.4133 33.8656 32.2167 33.8656 32.01V31.66H33.6656ZM38.2698 29.89H36.9498V32.62C36.9498 32.7933 36.9664 32.9367 36.9998 33.05C37.0331 33.1633 37.0798 33.2533 37.1398 33.32C37.2064 33.38 37.2831 33.4233 37.3698 33.45C37.4564 33.47 37.5498 33.48 37.6498 33.48C37.7431 33.48 37.8398 33.4667 37.9398 33.44C38.0464 33.4133 38.1464 33.3767 38.2398 33.33L38.2698 33.92C38.1498 33.9667 38.0231 34 37.8898 34.02C37.7631 34.0467 37.6231 34.06 37.4698 34.06C37.3431 34.06 37.2098 34.0433 37.0698 34.01C36.9298 33.9767 36.7998 33.9133 36.6798 33.82C36.5598 33.7267 36.4598 33.6 36.3798 33.44C36.3064 33.28 36.2698 33.07 36.2698 32.81V29.89H35.2998V29.32H36.2698V28H36.9498V29.32H38.2698V29.89ZM40.0236 34H39.3436V29.32H40.0236V34ZM40.1636 27.52C40.1636 27.66 40.1136 27.7767 40.0136 27.87C39.9136 27.9567 39.8036 28 39.6836 28C39.5636 28 39.4536 27.9567 39.3536 27.87C39.2536 27.7767 39.2036 27.66 39.2036 27.52C39.2036 27.38 39.2536 27.2667 39.3536 27.18C39.4536 27.0867 39.5636 27.04 39.6836 27.04C39.8036 27.04 39.9136 27.0867 40.0136 27.18C40.1136 27.2667 40.1636 27.38 40.1636 27.52ZM46.4836 31.66C46.4836 32.0133 46.4203 32.34 46.2936 32.64C46.1736 32.94 46.0036 33.2 45.7836 33.42C45.5636 33.64 45.3003 33.8133 44.9936 33.94C44.6869 34.06 44.3503 34.12 43.9836 34.12C43.6236 34.12 43.2903 34.06 42.9836 33.94C42.6769 33.8133 42.4136 33.64 42.1936 33.42C41.9736 33.2 41.8003 32.94 41.6736 32.64C41.5536 32.34 41.4936 32.0133 41.4936 31.66C41.4936 31.3067 41.5536 30.98 41.6736 30.68C41.8003 30.38 41.9736 30.12 42.1936 29.9C42.4136 29.68 42.6769 29.51 42.9836 29.39C43.2903 29.2633 43.6236 29.2 43.9836 29.2C44.3503 29.2 44.6869 29.2633 44.9936 29.39C45.3003 29.51 45.5636 29.68 45.7836 29.9C46.0036 30.12 46.1736 30.38 46.2936 30.68C46.4203 30.98 46.4836 31.3067 46.4836 31.66ZM45.7636 31.66C45.7636 31.4 45.7203 31.1567 45.6336 30.93C45.5536 30.6967 45.4369 30.4967 45.2836 30.33C45.1303 30.1567 44.9436 30.02 44.7236 29.92C44.5036 29.82 44.2569 29.77 43.9836 29.77C43.7103 29.77 43.4636 29.82 43.2436 29.92C43.0303 30.02 42.8469 30.1567 42.6936 30.33C42.5403 30.4967 42.4203 30.6967 42.3336 30.93C42.2536 31.1567 42.2136 31.4 42.2136 31.66C42.2136 31.92 42.2536 32.1667 42.3336 32.4C42.4203 32.6267 42.5403 32.8267 42.6936 33C42.8469 33.1667 43.0303 33.3 43.2436 33.4C43.4636 33.4933 43.7103 33.54 43.9836 33.54C44.2569 33.54 44.5036 33.4933 44.7236 33.4C44.9436 33.3 45.1303 33.1667 45.2836 33C45.4369 32.8267 45.5536 32.6267 45.6336 32.4C45.7203 32.1667 45.7636 31.92 45.7636 31.66ZM48.5569 29.32C48.5702 29.4467 48.5802 29.5867 48.5869 29.74C48.5935 29.8933 48.5969 30.02 48.5969 30.12H48.6169C48.7502 29.8467 48.9669 29.6267 49.2669 29.46C49.5669 29.2867 49.8835 29.2 50.2169 29.2C50.8102 29.2 51.2535 29.3767 51.5469 29.73C51.8469 30.0833 51.9969 30.55 51.9969 31.13V34H51.3169V31.41C51.3169 31.1633 51.2969 30.94 51.2569 30.74C51.2169 30.54 51.1469 30.37 51.0469 30.23C50.9535 30.0833 50.8235 29.97 50.6569 29.89C50.4969 29.81 50.2935 29.77 50.0469 29.77C49.8669 29.77 49.6902 29.8067 49.5169 29.88C49.3502 29.9533 49.2002 30.0667 49.0669 30.22C48.9335 30.3667 48.8269 30.5567 48.7469 30.79C48.6669 31.0167 48.6269 31.2867 48.6269 31.6V34H47.9469V30.35C47.9469 30.2233 47.9435 30.06 47.9369 29.86C47.9302 29.66 47.9202 29.48 47.9069 29.32H48.5569Z" fill="#00394C"/>
</svg>
