<svg width="21" height="21" viewBox="0 0 21 21" fill="none" xmlns="http://www.w3.org/2000/svg">
<path d="M5.83317 1.16663H2.49984C1.76346 1.16663 1.1665 1.76358 1.1665 2.49996V5.83329M8.49984 1.16663H12.4998M15.1665 1.16663H18.4998C19.2362 1.16663 19.8332 1.76358 19.8332 2.49996V5.83329M1.1665 8.49996V12.5M19.8332 8.49996V12.5M1.1665 15.1666V18.5C1.1665 19.2363 1.76346 19.8333 2.49984 19.8333H5.83317M19.8332 15.1666V18.5C19.8332 19.2363 19.2362 19.8333 18.4998 19.8333H15.1665M10.4998 5.83329V15.1666M5.83317 10.5H15.1665M8.49984 19.8333H12.4998" stroke="#2FD1C5"/>
</svg>
