<svg width="21" height="21" viewBox="0 0 21 21" fill="none" xmlns="http://www.w3.org/2000/svg">
<path d="M5.9343 9.12646L6.42927 9.19717V9.19717L5.9343 9.12646ZM5.92089 9.22027L5.42592 9.14956L5.42592 9.14956L5.92089 9.22027ZM15.0657 9.12646L15.5606 9.05575V9.05575L15.0657 9.12646ZM15.0791 9.22027L14.5841 9.29098V9.29098L15.0791 9.22027ZM13.1667 17.1667V17.6667C13.4428 17.6667 13.6667 17.4428 13.6667 17.1667H13.1667ZM7.83333 17.1667H7.33333C7.33333 17.4428 7.55719 17.6667 7.83333 17.6667V17.1667ZM6.84065 12.7039L7.23605 12.3978L6.84065 12.7039ZM14.1593 12.7039L13.7639 12.3978L14.1593 12.7039ZM8.5 20.3333H12.5V19.3333H8.5V20.3333ZM5.43932 9.05575L5.42592 9.14956L6.41587 9.29098L6.42927 9.19717L5.43932 9.05575ZM10.5 4.66667C7.95597 4.66667 5.7991 6.53731 5.43932 9.05575L6.42927 9.19717C6.71867 7.17138 8.45362 5.66667 10.5 5.66667V4.66667ZM15.5606 9.05575C15.2009 6.53731 13.044 4.66667 10.5 4.66667V5.66667C12.5463 5.66667 14.2813 7.17138 14.5707 9.19718L15.5606 9.05575ZM15.574 9.14956L15.5606 9.05575L14.5707 9.19717L14.5841 9.29098L15.574 9.14956ZM14.5547 13.0099C15.368 11.9592 15.7797 10.5889 15.574 9.14956L14.5841 9.29098C14.7497 10.4503 14.4193 11.5511 13.7639 12.3978L14.5547 13.0099ZM12.6667 15.0351V17.1667H13.6667V15.0351H12.6667ZM13.1667 16.6667H7.83333V17.6667H13.1667V16.6667ZM8.33333 17.1667V15.0351H7.33333V17.1667H8.33333ZM5.42592 9.14956C5.2203 10.5889 5.632 11.9592 6.44525 13.0099L7.23605 12.3978C6.58065 11.5511 6.25025 10.4503 6.41587 9.29098L5.42592 9.14956ZM8.33333 15.0351C8.33333 13.9949 7.77968 13.1002 7.23605 12.3978L6.44525 13.0099C6.96105 13.6763 7.33333 14.3444 7.33333 15.0351H8.33333ZM13.7639 12.3978C13.2203 13.1002 12.6667 13.9949 12.6667 15.0351H13.6667C13.6667 14.3444 14.0389 13.6763 14.5547 13.0099L13.7639 12.3978ZM10 0.5V3.16667H11V0.5H10ZM0.5 11H3.16667V10H0.5V11ZM17.8333 11H20.5V10H17.8333V11ZM4.85355 5.47978L2.85355 3.47978L2.14645 4.18689L4.14645 6.18689L4.85355 5.47978ZM16.8536 6.18689L18.8536 4.18689L18.1464 3.47978L16.1464 5.47978L16.8536 6.18689Z" fill="#FFB017"/>
</svg>
