<svg width="12" height="10" viewBox="0 0 12 10" fill="none" xmlns="http://www.w3.org/2000/svg">
<path d="M0.666504 5.18286C0.666504 5.43599 0.854606 5.64518 1.09866 5.67829L1.1665 5.68286L9.95584 5.68246L6.78051 8.84481C6.58483 9.03965 6.58415 9.35623 6.77899 9.55192C6.95612 9.72981 7.23386 9.74654 7.42991 9.60173L7.4861 9.55344L11.5194 5.53744C11.5452 5.51175 11.5676 5.48396 11.5866 5.45461C11.592 5.44577 11.5975 5.43673 11.6027 5.42751C11.6074 5.41961 11.6117 5.4114 11.6158 5.4031C11.6214 5.39103 11.627 5.37856 11.632 5.36583C11.636 5.35602 11.6394 5.34647 11.6425 5.33685C11.6462 5.32492 11.6498 5.31221 11.6529 5.2993C11.6552 5.29029 11.657 5.28162 11.6586 5.27291C11.6608 5.25996 11.6627 5.24656 11.664 5.23299C11.6652 5.22265 11.6659 5.2124 11.6663 5.20214C11.6664 5.19591 11.6665 5.1894 11.6665 5.18286L11.6663 5.16349C11.6659 5.15368 11.6652 5.14387 11.6642 5.13409L11.6665 5.18286C11.6665 5.15131 11.6636 5.12044 11.658 5.0905C11.6567 5.08336 11.6552 5.07602 11.6534 5.06871C11.6499 5.05366 11.6458 5.03916 11.6411 5.02495C11.6387 5.01789 11.636 5.01035 11.6331 5.00286C11.6273 4.98782 11.621 4.97347 11.614 4.95951C11.6107 4.95294 11.6071 4.94606 11.6033 4.93925C11.597 4.92815 11.5906 4.91759 11.5838 4.90731C11.579 4.90003 11.5737 4.89245 11.5681 4.88499L11.5638 4.87923C11.5503 4.86163 11.5357 4.84495 11.5201 4.8293L11.5195 4.82884L7.48612 0.812173C7.29046 0.617316 6.97388 0.617972 6.77902 0.813637C6.60188 0.991516 6.58631 1.26932 6.73196 1.46476L6.78048 1.52074L9.9545 4.68246L1.1665 4.68286C0.890362 4.68286 0.666504 4.90671 0.666504 5.18286Z" fill="#585A66"/>
</svg>
