

<svg width="31" height="38" viewBox="0 0 31 38" fill="none" xmlns="http://www.w3.org/2000/svg">
<path d="M24.8332 19.3333L19.4998 14M14.1665 16.6666C9.74823 16.6666 6.1665 13.0849 6.1665 8.66663C6.1665 4.24835 9.74823 0.666626 14.1665 0.666626C18.5848 0.666626 22.1665 4.24835 22.1665 8.66663C22.1665 13.0849 18.5848 16.6666 14.1665 16.6666Z" stroke="#00394C"/>
<path d="M4.4159 28.06C4.26257 27.8467 4.0659 27.6767 3.8259 27.55C3.5859 27.4167 3.2959 27.35 2.9559 27.35C2.78257 27.35 2.6059 27.3767 2.4259 27.43C2.2459 27.4833 2.08257 27.5667 1.9359 27.68C1.78923 27.7867 1.66923 27.9233 1.5759 28.09C1.48923 28.2567 1.4459 28.4533 1.4459 28.68C1.4459 28.9067 1.48923 29.0933 1.5759 29.24C1.66257 29.3867 1.7759 29.5133 1.9159 29.62C2.06257 29.72 2.2259 29.8033 2.4059 29.87C2.59257 29.9367 2.7859 30.0033 2.9859 30.07C3.23257 30.15 3.47923 30.2367 3.7259 30.33C3.97923 30.4233 4.2059 30.5467 4.4059 30.7C4.6059 30.8467 4.76923 31.0367 4.8959 31.27C5.02257 31.4967 5.0859 31.7867 5.0859 32.14C5.0859 32.4933 5.0159 32.8 4.8759 33.06C4.74257 33.3133 4.5659 33.5233 4.3459 33.69C4.13257 33.8567 3.8859 33.98 3.6059 34.06C3.33257 34.14 3.0559 34.18 2.7759 34.18C2.56257 34.18 2.34923 34.1567 2.1359 34.11C1.92257 34.07 1.71923 34.0067 1.5259 33.92C1.33257 33.8333 1.15257 33.7233 0.985898 33.59C0.819232 33.4567 0.672565 33.3033 0.545898 33.13L1.1659 32.67C1.31923 32.9233 1.53257 33.1367 1.8059 33.31C2.0859 33.4767 2.41257 33.56 2.7859 33.56C2.9659 33.56 3.14923 33.5333 3.3359 33.48C3.52257 33.42 3.68923 33.3333 3.8359 33.22C3.98923 33.1 4.11257 32.9567 4.2059 32.79C4.3059 32.6167 4.3559 32.4167 4.3559 32.19C4.3559 31.9433 4.3059 31.74 4.2059 31.58C4.11257 31.4133 3.9859 31.2767 3.8259 31.17C3.6659 31.0567 3.48257 30.9633 3.2759 30.89C3.06923 30.8167 2.85257 30.7433 2.6259 30.67C2.39257 30.5967 2.16257 30.5133 1.9359 30.42C1.70923 30.3267 1.5059 30.2067 1.3259 30.06C1.1459 29.9067 0.999232 29.72 0.885899 29.5C0.779232 29.28 0.725898 29.01 0.725898 28.69C0.725898 28.35 0.792565 28.0567 0.925899 27.81C1.0659 27.5633 1.2459 27.36 1.4659 27.2C1.6859 27.04 1.92923 26.9233 2.1959 26.85C2.46257 26.7767 2.7259 26.74 2.9859 26.74C3.4659 26.74 3.8759 26.8267 4.2159 27C4.5559 27.1667 4.81257 27.3667 4.9859 27.6L4.4159 28.06ZM10.1604 31.3C10.1404 30.86 9.9971 30.4967 9.73043 30.21C9.47043 29.9167 9.0971 29.77 8.61043 29.77C8.38376 29.77 8.17376 29.8133 7.98043 29.9C7.7871 29.98 7.6171 30.0933 7.47043 30.24C7.32376 30.38 7.2071 30.5433 7.12043 30.73C7.03376 30.91 6.98376 31.1 6.97043 31.3H10.1604ZM10.8504 31.52C10.8504 31.5667 10.8504 31.6167 10.8504 31.67C10.8504 31.7233 10.8471 31.78 10.8404 31.84H6.96043C6.9671 32.0733 7.01376 32.2933 7.10043 32.5C7.1871 32.7067 7.3071 32.8867 7.46043 33.04C7.61376 33.1933 7.79376 33.3167 8.00043 33.41C8.2071 33.4967 8.43043 33.54 8.67043 33.54C9.02376 33.54 9.3271 33.46 9.58043 33.3C9.84043 33.1333 10.0371 32.9433 10.1704 32.73L10.6804 33.13C10.4004 33.4833 10.0904 33.7367 9.75043 33.89C9.4171 34.0433 9.0571 34.12 8.67043 34.12C8.32376 34.12 8.00043 34.06 7.70043 33.94C7.4071 33.8133 7.15376 33.64 6.94043 33.42C6.7271 33.2 6.5571 32.94 6.43043 32.64C6.31043 32.34 6.25043 32.0133 6.25043 31.66C6.25043 31.3067 6.31043 30.98 6.43043 30.68C6.55043 30.38 6.7171 30.12 6.93043 29.9C7.14376 29.68 7.39376 29.51 7.68043 29.39C7.9671 29.2633 8.2771 29.2 8.61043 29.2C8.9771 29.2 9.30043 29.2633 9.58043 29.39C9.86043 29.51 10.0938 29.6767 10.2804 29.89C10.4671 30.0967 10.6071 30.34 10.7004 30.62C10.8004 30.9 10.8504 31.2 10.8504 31.52ZM15.2045 30.98C15.2045 30.5733 15.0978 30.27 14.8845 30.07C14.6712 29.87 14.3612 29.77 13.9545 29.77C13.6745 29.77 13.4145 29.82 13.1745 29.92C12.9345 30.02 12.7312 30.1533 12.5645 30.32L12.1845 29.87C12.3778 29.6767 12.6312 29.5167 12.9445 29.39C13.2645 29.2633 13.6245 29.2 14.0245 29.2C14.2778 29.2 14.5145 29.2367 14.7345 29.31C14.9545 29.3767 15.1478 29.48 15.3145 29.62C15.4812 29.76 15.6112 29.9367 15.7045 30.15C15.7978 30.3633 15.8445 30.6133 15.8445 30.9V32.95C15.8445 33.13 15.8512 33.3167 15.8645 33.51C15.8778 33.7033 15.8978 33.8667 15.9245 34H15.3145C15.2945 33.8867 15.2778 33.7633 15.2645 33.63C15.2512 33.4967 15.2445 33.3667 15.2445 33.24H15.2245C15.0112 33.5533 14.7678 33.78 14.4945 33.92C14.2278 34.0533 13.9045 34.12 13.5245 34.12C13.3445 34.12 13.1578 34.0933 12.9645 34.04C12.7778 33.9933 12.6045 33.9133 12.4445 33.8C12.2912 33.6867 12.1612 33.54 12.0545 33.36C11.9545 33.18 11.9045 32.96 11.9045 32.7C11.9045 32.34 11.9945 32.0567 12.1745 31.85C12.3612 31.6367 12.6078 31.48 12.9145 31.38C13.2212 31.2733 13.5712 31.2067 13.9645 31.18C14.3645 31.1467 14.7778 31.13 15.2045 31.13V30.98ZM15.0045 31.66C14.7245 31.66 14.4412 31.6733 14.1545 31.7C13.8745 31.72 13.6178 31.7667 13.3845 31.84C13.1578 31.9067 12.9712 32.0067 12.8245 32.14C12.6778 32.2733 12.6045 32.45 12.6045 32.67C12.6045 32.8367 12.6345 32.9767 12.6945 33.09C12.7612 33.2033 12.8478 33.2967 12.9545 33.37C13.0612 33.4367 13.1778 33.4867 13.3045 33.52C13.4378 33.5467 13.5712 33.56 13.7045 33.56C13.9445 33.56 14.1578 33.52 14.3445 33.44C14.5312 33.3533 14.6878 33.24 14.8145 33.1C14.9412 32.9533 15.0378 32.7867 15.1045 32.6C15.1712 32.4133 15.2045 32.2167 15.2045 32.01V31.66H15.0045ZM17.5963 30.35C17.5963 30.2233 17.593 30.06 17.5863 29.86C17.5796 29.66 17.5696 29.48 17.5563 29.32H18.2063C18.2196 29.4467 18.2296 29.5867 18.2363 29.74C18.243 29.8933 18.2463 30.02 18.2463 30.12H18.2663C18.3996 29.8467 18.5996 29.6267 18.8663 29.46C19.133 29.2867 19.433 29.2 19.7663 29.2C19.853 29.2 19.9296 29.2033 19.9963 29.21C20.0696 29.2167 20.143 29.23 20.2163 29.25L20.1263 29.89C20.0863 29.8767 20.0196 29.8633 19.9263 29.85C19.833 29.8367 19.7396 29.83 19.6463 29.83C19.4663 29.83 19.293 29.8633 19.1263 29.93C18.9596 29.9967 18.813 30.1033 18.6863 30.25C18.5663 30.39 18.4663 30.5733 18.3863 30.8C18.313 31.02 18.2763 31.2867 18.2763 31.6V34H17.5963V30.35ZM24.394 30.39C24.2807 30.21 24.114 30.0633 23.894 29.95C23.6807 29.83 23.4474 29.77 23.194 29.77C22.9207 29.77 22.674 29.82 22.454 29.92C22.234 30.0133 22.044 30.1467 21.884 30.32C21.7307 30.4867 21.6107 30.6867 21.524 30.92C21.444 31.1467 21.404 31.3933 21.404 31.66C21.404 31.9267 21.444 32.1733 21.524 32.4C21.6107 32.6267 21.7307 32.8267 21.884 33C22.0374 33.1667 22.224 33.3 22.444 33.4C22.664 33.4933 22.9107 33.54 23.184 33.54C23.484 33.54 23.7374 33.4833 23.944 33.37C24.1507 33.2567 24.3207 33.11 24.454 32.93L24.964 33.31C24.764 33.5567 24.5174 33.7533 24.224 33.9C23.9374 34.0467 23.5907 34.12 23.184 34.12C22.804 34.12 22.4607 34.06 22.154 33.94C21.8474 33.8133 21.584 33.64 21.364 33.42C21.1507 33.2 20.984 32.94 20.864 32.64C20.744 32.34 20.684 32.0133 20.684 31.66C20.684 31.3067 20.744 30.98 20.864 30.68C20.984 30.38 21.1507 30.12 21.364 29.9C21.584 29.68 21.8474 29.51 22.154 29.39C22.4607 29.2633 22.804 29.2 23.184 29.2C23.4974 29.2 23.814 29.27 24.134 29.41C24.4607 29.5433 24.724 29.7433 24.924 30.01L24.394 30.39ZM26.744 30.09C26.8707 29.8167 27.0807 29.6 27.374 29.44C27.6674 29.28 27.9807 29.2 28.314 29.2C28.9074 29.2 29.3507 29.3767 29.644 29.73C29.944 30.0833 30.094 30.55 30.094 31.13V34H29.414V31.41C29.414 31.1633 29.394 30.94 29.354 30.74C29.314 30.54 29.244 30.37 29.144 30.23C29.0507 30.0833 28.9207 29.97 28.754 29.89C28.594 29.81 28.3907 29.77 28.144 29.77C27.964 29.77 27.7874 29.8067 27.614 29.88C27.4474 29.9533 27.2974 30.0667 27.164 30.22C27.0307 30.3667 26.924 30.5567 26.844 30.79C26.764 31.0167 26.724 31.2867 26.724 31.6V34H26.044V26.44H26.724V30.09H26.744Z" fill="#00394C"/>
</svg>
