<svg width="25" height="39" viewBox="0 0 25 39" fill="none" xmlns="http://www.w3.org/2000/svg">
<path d="M9.64286 4.57143V3.85714C9.64286 2.27919 10.922 1 12.5 1C14.078 1 15.3571 2.27919 15.3571 3.85714V4.57143M2.5 9.57143C7.79396 15.6217 17.206 15.6217 22.5 9.57143M3.92857 5.28571H21.0714C21.8604 5.28571 22.5 5.92531 22.5 6.71429V19.5714C22.5 20.3604 21.8604 21 21.0714 21H3.92857C3.13959 21 2.5 20.3604 2.5 19.5714V6.71429C2.5 5.92531 3.13959 5.28571 3.92857 5.28571Z" stroke="#00394C"/>
<path d="M3.70316 35H2.98316V28.56H0.613164V27.92H6.07316V28.56H3.70316V35ZM9.08926 31.98C9.08926 31.5733 8.98259 31.27 8.76926 31.07C8.55592 30.87 8.24592 30.77 7.83926 30.77C7.55926 30.77 7.29926 30.82 7.05926 30.92C6.81926 31.02 6.61592 31.1533 6.44926 31.32L6.06926 30.87C6.26259 30.6767 6.51592 30.5167 6.82926 30.39C7.14926 30.2633 7.50926 30.2 7.90926 30.2C8.16259 30.2 8.39926 30.2367 8.61926 30.31C8.83926 30.3767 9.03259 30.48 9.19926 30.62C9.36592 30.76 9.49592 30.9367 9.58926 31.15C9.68259 31.3633 9.72926 31.6133 9.72926 31.9V33.95C9.72926 34.13 9.73592 34.3167 9.74926 34.51C9.76259 34.7033 9.78259 34.8667 9.80926 35H9.19926C9.17926 34.8867 9.16259 34.7633 9.14926 34.63C9.13592 34.4967 9.12926 34.3667 9.12926 34.24H9.10926C8.89592 34.5533 8.65259 34.78 8.37926 34.92C8.11259 35.0533 7.78926 35.12 7.40926 35.12C7.22926 35.12 7.04259 35.0933 6.84926 35.04C6.66259 34.9933 6.48926 34.9133 6.32926 34.8C6.17592 34.6867 6.04592 34.54 5.93926 34.36C5.83926 34.18 5.78926 33.96 5.78926 33.7C5.78926 33.34 5.87926 33.0567 6.05926 32.85C6.24592 32.6367 6.49259 32.48 6.79926 32.38C7.10592 32.2733 7.45592 32.2067 7.84926 32.18C8.24926 32.1467 8.66259 32.13 9.08926 32.13V31.98ZM8.88926 32.66C8.60926 32.66 8.32592 32.6733 8.03926 32.7C7.75926 32.72 7.50259 32.7667 7.26926 32.84C7.04259 32.9067 6.85592 33.0067 6.70926 33.14C6.56259 33.2733 6.48926 33.45 6.48926 33.67C6.48926 33.8367 6.51926 33.9767 6.57926 34.09C6.64592 34.2033 6.73259 34.2967 6.83926 34.37C6.94592 34.4367 7.06259 34.4867 7.18926 34.52C7.32259 34.5467 7.45592 34.56 7.58926 34.56C7.82926 34.56 8.04259 34.52 8.22926 34.44C8.41592 34.3533 8.57259 34.24 8.69926 34.1C8.82592 33.9533 8.92259 33.7867 8.98926 33.6C9.05592 33.4133 9.08926 33.2167 9.08926 33.01V32.66H8.88926ZM13.9711 31.43C13.8711 31.2367 13.7177 31.08 13.5111 30.96C13.3111 30.8333 13.0811 30.77 12.8211 30.77C12.7011 30.77 12.5811 30.7833 12.4611 30.81C12.3411 30.8367 12.2344 30.88 12.1411 30.94C12.0477 31 11.9711 31.0767 11.9111 31.17C11.8577 31.2633 11.8311 31.3733 11.8311 31.5C11.8311 31.72 11.9211 31.89 12.1011 32.01C12.2811 32.1233 12.5644 32.22 12.9511 32.3C13.5044 32.4133 13.9111 32.58 14.1711 32.8C14.4377 33.0133 14.5711 33.3033 14.5711 33.67C14.5711 33.9367 14.5177 34.1633 14.4111 34.35C14.3111 34.53 14.1777 34.68 14.0111 34.8C13.8444 34.9133 13.6544 34.9933 13.4411 35.04C13.2344 35.0933 13.0244 35.12 12.8111 35.12C12.4577 35.12 12.1144 35.0467 11.7811 34.9C11.4477 34.7533 11.1744 34.5233 10.9611 34.21L11.5011 33.81C11.6211 34.0167 11.7977 34.19 12.0311 34.33C12.2644 34.47 12.5211 34.54 12.8011 34.54C12.9477 34.54 13.0877 34.5267 13.2211 34.5C13.3544 34.4733 13.4711 34.4267 13.5711 34.36C13.6711 34.2933 13.7511 34.21 13.8111 34.11C13.8711 34.0033 13.9011 33.8733 13.9011 33.72C13.9011 33.4733 13.7811 33.29 13.5411 33.17C13.3077 33.0433 12.9677 32.9267 12.5211 32.82C12.3811 32.7867 12.2311 32.7467 12.0711 32.7C11.9177 32.6467 11.7744 32.5733 11.6411 32.48C11.5077 32.38 11.3977 32.2567 11.3111 32.11C11.2244 31.9633 11.1811 31.78 11.1811 31.56C11.1811 31.32 11.2277 31.1167 11.3211 30.95C11.4144 30.7767 11.5377 30.6367 11.6911 30.53C11.8511 30.4167 12.0311 30.3333 12.2311 30.28C12.4311 30.2267 12.6377 30.2 12.8511 30.2C13.1777 30.2 13.4944 30.2733 13.8011 30.42C14.1077 30.5667 14.3377 30.7733 14.4911 31.04L13.9711 31.43ZM16.6244 32.43H16.6544L18.8144 30.32H19.7944L17.4344 32.46L20.0344 35H19.0344L16.6544 32.54H16.6244V35H15.9444V27.44H16.6244V32.43ZM23.4535 31.43C23.3535 31.2367 23.2001 31.08 22.9935 30.96C22.7935 30.8333 22.5635 30.77 22.3035 30.77C22.1835 30.77 22.0635 30.7833 21.9435 30.81C21.8235 30.8367 21.7168 30.88 21.6235 30.94C21.5301 31 21.4535 31.0767 21.3935 31.17C21.3401 31.2633 21.3135 31.3733 21.3135 31.5C21.3135 31.72 21.4035 31.89 21.5835 32.01C21.7635 32.1233 22.0468 32.22 22.4335 32.3C22.9868 32.4133 23.3935 32.58 23.6535 32.8C23.9201 33.0133 24.0535 33.3033 24.0535 33.67C24.0535 33.9367 24.0001 34.1633 23.8935 34.35C23.7935 34.53 23.6601 34.68 23.4935 34.8C23.3268 34.9133 23.1368 34.9933 22.9235 35.04C22.7168 35.0933 22.5068 35.12 22.2935 35.12C21.9401 35.12 21.5968 35.0467 21.2635 34.9C20.9301 34.7533 20.6568 34.5233 20.4435 34.21L20.9835 33.81C21.1035 34.0167 21.2801 34.19 21.5135 34.33C21.7468 34.47 22.0035 34.54 22.2835 34.54C22.4301 34.54 22.5701 34.5267 22.7035 34.5C22.8368 34.4733 22.9535 34.4267 23.0535 34.36C23.1535 34.2933 23.2335 34.21 23.2935 34.11C23.3535 34.0033 23.3835 33.8733 23.3835 33.72C23.3835 33.4733 23.2635 33.29 23.0235 33.17C22.7901 33.0433 22.4501 32.9267 22.0035 32.82C21.8635 32.7867 21.7135 32.7467 21.5535 32.7C21.4001 32.6467 21.2568 32.5733 21.1235 32.48C20.9901 32.38 20.8801 32.2567 20.7935 32.11C20.7068 31.9633 20.6635 31.78 20.6635 31.56C20.6635 31.32 20.7101 31.1167 20.8035 30.95C20.8968 30.7767 21.0201 30.6367 21.1735 30.53C21.3335 30.4167 21.5135 30.3333 21.7135 30.28C21.9135 30.2267 22.1201 30.2 22.3335 30.2C22.6601 30.2 22.9768 30.2733 23.2835 30.42C23.5901 30.5667 23.8201 30.7733 23.9735 31.04L23.4535 31.43Z" fill="#00394C"/>
</svg>
