<svg width="80" height="80" viewBox="0 0 80 80" fill="none" xmlns="http://www.w3.org/2000/svg">
<g filter="url(#filter0_d_607_2195)">
<rect x="8" y="4" width="64" height="64" rx="8" fill="#B3B4F7"/>
</g>
<g clip-path="url(#clip0_607_2195)">
<path fill-rule="evenodd" clip-rule="evenodd" d="M64.0028 35.9859C64.009 40.7375 62.6064 45.3842 59.9726 49.338C57.3387 53.2918 53.5919 56.375 49.2063 58.1975C44.8206 60.02 39.9933 60.4999 35.335 59.5765C30.6767 58.6531 26.3968 56.3678 23.0369 53.0099C19.677 49.652 17.3881 45.3723 16.4597 40.7123C15.5314 36.0524 16.0053 31.2216 17.8216 26.8313C19.6379 22.4409 22.7149 18.6883 26.6633 16.0483C30.6117 13.4082 35.254 11.9994 40.0028 12C46.3632 12 52.4634 14.5262 56.9635 19.0236C61.4635 23.521 63.9954 29.6219 64.0028 35.9859Z" fill="white"/>
<path fill-rule="evenodd" clip-rule="evenodd" d="M53.9298 33.0069H51.2715L51.825 30.7569H53.345L53.9298 33.0069Z" fill="#FFD05B"/>
<path d="M52.8758 24.7955H52.3501V31.5141H52.8758V24.7955Z" fill="#FFD05B"/>
<path fill-rule="evenodd" clip-rule="evenodd" d="M53.6669 30.7569C53.6694 30.4744 53.5605 30.2022 53.3638 29.9995C53.1671 29.7968 52.8984 29.6799 52.6161 29.6742C52.3309 29.679 52.0588 29.7947 51.8574 29.9968C51.656 30.1989 51.5411 30.4715 51.5371 30.7569C51.5429 31.0388 51.6593 31.3072 51.8612 31.5039C52.0631 31.7007 52.3343 31.81 52.6161 31.8083C52.7542 31.8087 52.891 31.7818 53.0187 31.7291C53.1464 31.6764 53.2624 31.599 53.36 31.5013C53.4577 31.4036 53.5351 31.2875 53.5878 31.1597C53.6404 31.032 53.6673 30.8951 53.6669 30.7569Z" fill="#F9B54C"/>
<path fill-rule="evenodd" clip-rule="evenodd" d="M24.7007 24.3292L40.0001 18.4837L55.2714 24.3292L40.0001 30.1716L24.7007 24.3292Z" fill="#324A5E"/>
<path fill-rule="evenodd" clip-rule="evenodd" d="M52.1781 38.0608C52.1787 35.6915 51.4771 33.3751 50.162 31.4048C48.8469 29.4345 46.9773 27.8986 44.7898 26.9915C42.6023 26.0844 40.1951 25.8467 37.8726 26.3086C35.55 26.7704 33.4166 27.911 31.742 29.5862C30.0674 31.2613 28.9268 33.3958 28.4646 35.7195C28.0025 38.0433 28.2394 40.452 29.1454 42.6411C30.0514 44.8301 31.5859 46.7011 33.5547 48.0175C35.5235 49.3339 37.8383 50.0365 40.2062 50.0365C43.3801 50.034 46.4232 48.7716 48.6678 46.5264C50.9123 44.2811 52.1748 41.2365 52.1781 38.0608Z" fill="#E8FEE4"/>
<path fill-rule="evenodd" clip-rule="evenodd" d="M42.3083 47.3201C42.2273 47.3998 42.1275 47.4576 42.0181 47.4883C41.9087 47.5189 41.7934 47.5213 41.6828 47.4953C41.5592 47.4562 41.4326 47.4269 41.3044 47.4077C41.1544 47.4719 41.0232 47.5731 40.9229 47.7018C40.8134 47.8958 40.6765 48.0729 40.5163 48.2276C40.4736 48.2887 40.4438 48.3579 40.4287 48.431C40.4287 48.6062 40.632 48.6344 40.779 48.6344C40.926 48.6344 41.0417 48.5186 41.1856 48.4904C41.3294 48.4623 41.4795 48.4904 41.6265 48.431C41.8198 48.3806 41.9925 48.2712 42.1207 48.118C42.2336 48.0115 42.3231 47.8825 42.3834 47.7394C42.4099 47.7086 42.4289 47.6722 42.439 47.6328C42.4491 47.5935 42.4499 47.5523 42.4414 47.5126C42.433 47.4729 42.4154 47.4357 42.3901 47.4039C42.3649 47.3722 42.3326 47.3466 42.2958 47.3294L42.3083 47.3201Z" fill="#ABCB57"/>
<path fill-rule="evenodd" clip-rule="evenodd" d="M45.2009 31.458C45.0258 31.5456 45.0539 31.749 45.1102 31.9242V31.8366C45.1327 31.9521 45.1946 32.0561 45.2854 32.1309C45.3761 32.2056 45.49 32.2465 45.6075 32.2465C45.7234 32.2695 45.8437 32.2534 45.9495 32.2007C46.0553 32.1481 46.1407 32.0619 46.1923 31.9555C45.9578 31.8085 45.6951 31.6614 45.4324 31.4861C45.4042 31.4861 45.2854 31.4267 45.2009 31.458ZM52.1783 38.0608V37.9105C52.0336 37.8606 51.8959 37.7922 51.7686 37.7071C51.5918 37.5939 51.4459 37.4386 51.3438 37.2551C51.2418 37.0716 51.1868 36.8657 51.1837 36.6557C51.1837 36.4805 51.2432 36.3615 51.2432 36.1863C51.1678 35.9693 51.0485 35.7701 50.8929 35.6011C50.5426 35.2538 50.2205 34.9596 49.8702 34.6624C49.4636 34.3119 48.8788 34.0772 48.5004 34.3995C48.4097 34.4871 48.3534 34.5747 48.2658 34.6624C48.0461 34.7396 47.805 34.7284 47.5934 34.6311C47.3901 34.5434 47.0399 34.5747 47.0086 34.8376C46.9773 35.1004 47.3902 35.2475 47.4777 35.5386C47.5059 35.6262 47.4777 35.7138 47.5059 35.8014C47.5259 35.9002 47.5728 35.9915 47.6414 36.0654C47.71 36.1392 47.7976 36.1927 47.8947 36.2198C47.9917 36.247 48.0943 36.2469 48.1913 36.2194C48.2882 36.192 48.3757 36.1383 48.4441 36.0643C48.6192 35.8014 48.6474 35.3915 48.9382 35.3915C49.0903 35.4536 49.2211 35.5585 49.3149 35.6935C49.4087 35.8284 49.4615 35.9876 49.4668 36.1519C49.3792 35.9172 49.0258 36.0048 48.9101 36.1801C48.8248 36.3716 48.7277 36.5576 48.6192 36.7371C48.3252 37.0281 47.7998 36.9405 47.4214 36.7652C46.5739 36.4742 45.7858 36.1801 44.9413 35.889C44.8538 35.8577 44.7349 35.8014 44.6474 35.8577C44.5004 35.889 44.4722 36.0643 44.3565 36.1519C44.2595 36.2098 44.1465 36.2352 44.0341 36.2245C43.9216 36.2138 43.8155 36.1676 43.731 36.0924C43.5701 35.9659 43.3935 35.8607 43.2056 35.7795C43.156 35.7576 43.1024 35.7463 43.0482 35.7464C42.9939 35.7465 42.9403 35.758 42.8908 35.7801C42.8413 35.8022 42.797 35.8345 42.7607 35.8748C42.7244 35.9151 42.697 35.9626 42.6802 36.0142C42.6716 36.1055 42.6913 36.1973 42.7365 36.2771C43.1181 37.0093 44.05 37.1251 44.663 37.5914C44.7224 37.3003 45.1321 37.244 45.3948 37.3879C45.6575 37.5319 45.7076 37.8542 45.7733 38.1484C45.7668 38.4433 45.8379 38.7346 45.9797 38.9933C46.0986 39.176 46.2758 39.3132 46.4824 39.3825C46.6891 39.4518 46.9131 39.4492 47.1181 39.375C47.3808 39.228 47.6716 39.0246 47.8749 39.1998C48.0782 39.375 47.9343 39.6974 48.0219 39.9602C48.0532 40.0478 48.1376 40.1355 48.1376 40.2512C48.1689 40.4546 47.8467 40.6017 47.6435 40.5141C47.4402 40.4265 47.2932 40.2231 47.1181 40.0478C46.9429 39.8726 46.7365 39.6974 46.5332 39.785C46.2705 39.7537 46.0954 40.076 46.183 40.3389C46.2705 40.6017 46.5332 40.7175 46.7365 40.8364C46.7084 41.068 46.5051 41.1275 46.2705 41.1275C46.0759 41.1232 45.8851 41.0728 45.7138 40.9804C45.2197 40.7175 44.6349 40.3389 44.5754 39.785C44.6053 39.6005 44.6053 39.4124 44.5754 39.228C44.5473 38.7022 44.1095 38.2642 43.6998 37.9137C42.9711 37.535 42.2705 37.1251 41.4511 37.2127C41.1567 37.2671 40.8721 37.3652 40.6067 37.5037C40.094 37.7704 39.6134 38.0948 39.1743 38.4707C38.8552 38.7448 38.6308 39.1128 38.5332 39.5221C38.5051 40.076 38.9116 40.5454 39.3495 40.8927C39.7873 41.2401 40.2877 41.5655 40.4879 42.0631C40.1095 42.207 40.05 42.7046 39.9343 43.0864C39.6435 43.9313 38.5332 44.2818 38.0579 45.0703C37.8264 45.5084 37.767 46.0373 37.4762 46.4159C37.3449 46.5736 37.2394 46.751 37.1634 46.9416C36.9007 47.4955 37.4574 48.1683 38.0672 48.2559C38.6771 48.3436 39.2932 47.9931 39.8217 47.6301C39.9402 47.5185 40.078 47.4294 40.2283 47.3672C40.3539 47.3424 40.4819 47.3319 40.6098 47.3359C40.9007 47.3359 41.2353 47.2796 41.5137 47.2796C41.3667 47.2796 41.3385 47.0731 41.4261 46.9855C41.5137 46.8978 41.6325 46.8697 41.7201 46.782C42.1132 46.5382 42.4112 46.1672 42.5645 45.7306C42.7709 46.1405 43.412 46.0435 43.8811 45.9058C44.2877 45.7306 44.7537 45.5929 45.1947 45.4365C45.0345 45.4322 44.8793 45.3802 44.7489 45.2871C44.6185 45.194 44.5189 45.064 44.4629 44.9139C44.3908 44.5996 44.4215 44.2706 44.5504 43.9751C44.6998 43.7236 44.8275 43.4598 44.932 43.1865C45.0195 42.8923 45.0195 42.6013 45.104 42.3385C45.1884 42.0756 45.3104 41.7533 45.6013 41.6657C45.7238 42.2472 45.6524 42.8529 45.398 43.3899C45.1947 43.828 44.9007 44.3287 45.1947 44.676C45.3346 44.815 45.5202 44.8984 45.717 44.9107C46.2455 44.9952 46.7396 45.0829 47.2087 45.1736C47.0347 44.5351 46.9454 43.8765 46.9429 43.2147C46.9375 43.1415 46.9511 43.0682 46.9823 43.0019C47.0135 42.9356 47.0614 42.8784 47.1212 42.836C47.3188 43.601 47.6548 44.3233 48.1126 44.9671C48.1785 45.0625 48.2282 45.1683 48.2596 45.28C48.2652 45.3975 48.2558 45.5153 48.2314 45.6305C48.0563 46.1843 47.7623 46.6506 47.7342 47.1951V47.3985C49.1194 46.2727 50.2365 44.8521 51.0041 43.2401C51.7718 41.6281 52.1708 39.8652 52.172 38.0795L52.1783 38.0608ZM48.1345 29.1204C46.8229 27.9622 45.2804 27.0961 43.6091 26.5794C43.4933 26.8705 43.3182 27.1333 43.2306 27.3962C43.1149 27.8061 43.0555 28.335 42.7646 28.6479C42.6458 28.7918 42.4988 28.8794 42.4519 29.0265C42.4011 29.1096 42.3683 29.2024 42.3555 29.2989C42.3428 29.3954 42.3503 29.4936 42.3777 29.587C42.4051 29.6804 42.4517 29.7671 42.5146 29.8414C42.5775 29.9157 42.6552 29.976 42.7428 30.0185C42.9192 30.0876 43.1116 30.1052 43.2976 30.0692C43.4836 30.0332 43.6556 29.9451 43.7936 29.8151C43.8595 29.7347 43.9533 29.6822 44.0563 29.668C44.1751 29.668 44.2908 29.8151 44.369 29.9309C44.6077 30.2328 44.9247 30.4634 45.2854 30.5975C45.646 30.7316 46.0366 30.764 46.4144 30.6913C46.4425 30.4284 46.0641 30.3127 46.0641 30.0498C46.0641 29.8433 46.355 29.7556 46.5582 29.8433C46.7615 29.9309 46.9085 30.1374 47.0837 30.225C47.1952 30.2616 47.3134 30.2728 47.4298 30.2576C47.5462 30.2425 47.6576 30.2014 47.756 30.1374C47.8454 30.0591 47.9097 29.9562 47.9408 29.8415C47.972 29.7269 47.9686 29.6056 47.9312 29.4928C47.901 29.4514 47.88 29.404 47.8698 29.3538C47.8595 29.3035 47.8602 29.2517 47.8718 29.2018C47.903 29.1141 48.05 29.1141 48.1345 29.1141V29.1204ZM37.6951 26.3322C35.2292 26.8733 32.9935 28.1707 31.2994 30.0435C31.4746 30.5411 31.828 31.0074 31.9718 31.5331C32.007 31.788 32.056 32.0408 32.1188 32.2904C32.1477 32.4158 32.213 32.53 32.3065 32.6185C32.3999 32.707 32.5174 32.7659 32.6442 32.7879C32.7478 32.6668 32.807 32.514 32.8121 32.3548C32.8172 32.1955 32.7679 32.0392 32.6724 31.9117C32.8475 31.8241 33.0227 31.7959 33.1102 31.6207C33.1978 31.4455 33.1978 31.2389 33.0227 31.1826C32.9064 31.1669 32.7886 31.1669 32.6724 31.1826C32.3596 31.1826 32.1188 30.804 31.9718 30.4816C32.2996 30.3593 32.6589 30.3505 32.9923 30.4566C33.3257 30.5626 33.6139 30.7775 33.8108 31.0668C33.7232 30.9761 33.6951 30.8603 33.6075 30.7727C34.1527 30.5899 34.7296 30.5207 35.3026 30.5693C35.4604 30.5948 35.6222 30.5742 35.7686 30.5098C35.9718 30.4222 36.0813 30.1969 36.3221 30.1969C36.4838 30.2116 36.6421 30.2517 36.7912 30.3158C37.4167 30.4316 38.0422 29.643 38.5426 29.9653C38.602 29.6711 38.1611 29.4677 37.9578 29.6524C37.9296 29.5929 37.8421 29.5648 37.7826 29.5053C38.0172 29.1924 38.5145 29.3019 38.8053 29.5648C39.0962 29.8276 39.2994 30.2063 39.6528 30.3533C39.9156 30.3533 40.0313 30.0404 40.0594 29.7682C40.017 29.5063 40.0691 29.2378 40.2064 29.0109C40.2537 28.9164 40.3125 28.8281 40.3815 28.748C40.4691 28.4351 39.9437 28.2786 39.828 27.9876C39.7818 27.7283 39.8225 27.461 39.9437 27.2272C40.0313 26.9925 40.0031 26.642 39.7404 26.6013C39.3901 27.0989 38.455 27.0113 38.2486 27.5652C38.1611 27.8562 38.2486 28.2379 37.9578 28.3537C37.7545 28.4413 37.5481 28.2067 37.4918 27.9438C37.4918 27.6809 37.5794 27.4775 37.5794 27.2147C37.5794 27.0989 37.5481 27.0113 37.5481 26.9017C37.5839 26.7139 37.633 26.5288 37.6951 26.3479V26.3322ZM28.2627 38.9808C28.2995 39.4932 28.378 40.0018 28.4973 40.5016C28.5904 40.4716 28.6893 40.4639 28.786 40.4791C28.8827 40.4943 28.9745 40.532 29.0539 40.5892C29.0687 40.6316 29.0961 40.6685 29.1324 40.6948C29.1688 40.7211 29.2124 40.7356 29.2572 40.7363C29.3007 40.7281 29.3409 40.7075 29.3729 40.6768C29.4809 40.4854 29.5409 40.2707 29.5481 40.051C29.8421 40.342 30.1329 40.6768 30.4238 40.9553C30.8929 40.7801 31.0492 40.1104 31.5059 39.9633C31.9625 39.8163 32.4973 40.4014 32.9664 40.2262C33.3166 40.1104 33.4918 39.6723 33.7826 39.4658C34.0954 39.2029 34.6302 39.2624 35.0962 39.35C35.1323 39.0488 35.1015 38.7434 35.0058 38.4556C34.9101 38.1677 34.7519 37.9047 34.5426 37.6852C34.2799 37.51 34.0172 37.3723 34.1048 37.1282C34.1923 36.8841 34.3956 36.8372 34.5426 36.662C34.7177 36.4273 34.4832 36.0768 34.3362 35.7858C34.1892 35.4947 34.0235 35.113 34.3362 34.9377C34.1323 34.6742 33.9747 34.378 33.8702 34.0615C33.6951 33.7705 33.4324 33.4357 33.1102 33.5076C32.8475 33.5076 32.6442 33.7111 32.4097 33.8206C32.1184 33.9608 31.8161 34.0769 31.5059 34.1679C31.3423 34.2127 31.1925 34.2977 31.0701 34.4152C30.9477 34.5327 30.8567 34.679 30.8053 34.8407C30.7772 35.1912 30.9804 35.5135 30.8053 35.8327C30.6302 36.1519 30.1048 36.3303 30.2205 36.6526C30.263 36.7347 30.3122 36.8132 30.3675 36.8873C30.4832 37.1188 30.1923 37.4412 29.9859 37.5882L28.2627 38.9808Z" fill="#ABCB57"/>
<path fill-rule="evenodd" clip-rule="evenodd" d="M38.2797 27.7779C40.4689 27.6308 45.9013 27.7184 47.5057 28.5946V24.9427C47.5057 23.2185 43.6214 22.4581 39.9998 22.4581C36.3783 22.4581 32.4658 23.2185 32.4658 24.9427V28.9733C33.8075 28.2441 36.2188 27.8937 38.2766 27.7779H38.2797Z" fill="#2B3B4E"/>
<path fill-rule="evenodd" clip-rule="evenodd" d="M46.6019 48.431C46.6078 48.3584 46.5911 48.2858 46.5541 48.2231C46.5172 48.1604 46.4618 48.1106 46.3955 48.0805C40.4603 45.7597 34.6858 43.0469 29.1101 39.96C29.047 39.9188 28.971 39.9018 28.8963 39.9121C28.8216 39.9225 28.7532 39.9595 28.7036 40.0164C28.2137 40.5331 27.8094 41.1247 27.5058 41.7688C27.4708 41.8469 27.4666 41.9354 27.4938 42.0165C27.521 42.0977 27.5778 42.1656 27.6527 42.2069L45.5793 50.6215C45.661 50.659 45.7537 50.6651 45.8397 50.6385C45.9257 50.612 45.9988 50.5547 46.0452 50.4775C46.3486 49.833 46.537 49.1404 46.6019 48.431Z" fill="white"/>
<path fill-rule="evenodd" clip-rule="evenodd" d="M46.3396 50.5935C46.3637 50.5114 46.3596 50.4236 46.3278 50.3442C46.296 50.2647 46.2385 50.1982 46.1645 50.1554L38.3959 46.5317C38.3579 46.5106 38.316 46.4977 38.2727 46.4937C38.2294 46.4897 38.1858 46.4948 38.1446 46.5087C38.1034 46.5225 38.0655 46.5448 38.0334 46.5741C38.0013 46.6034 37.9757 46.639 37.9581 46.6788L35.5656 45.5397C35.5998 45.4615 35.6037 45.3733 35.5765 45.2923C35.5493 45.2114 35.4931 45.1434 35.4186 45.1016L27.6532 41.4498C27.5741 41.4188 27.4866 41.4165 27.4061 41.4434C27.3255 41.4703 27.2569 41.5246 27.2122 41.5969C26.6513 42.657 26.3612 43.8395 26.3678 45.0391C26.3723 45.0979 26.3905 45.1548 26.4209 45.2053C26.4513 45.2559 26.4931 45.2986 26.5429 45.3301H26.5711C28.9667 46.2689 31.3592 47.289 33.6672 48.3404L35.0683 48.9663L37.023 49.9051C39.331 51.016 41.6391 52.2145 43.8564 53.4412C43.9252 53.4831 44.0062 53.5 44.0859 53.4892C44.1657 53.4784 44.2392 53.4404 44.2943 53.3817C45.1871 52.6162 45.8877 51.6515 46.3396 50.5654V50.5935Z" fill="#E6E9EE"/>
<path fill-rule="evenodd" clip-rule="evenodd" d="M36 47.6143L36.5254 48.2277L33.6075 50.7968L33.5199 49.8048L32.5566 49.5983L35.5058 47.0292L36 47.6143Z" fill="#F1543F"/>
<path fill-rule="evenodd" clip-rule="evenodd" d="M36.2347 48.1962L35.4185 48.2557L35.7093 52.1704L36.4693 51.5289L37.2855 52.0546L36.9947 48.1399L36.2347 48.1962Z" fill="#F1543F"/>
<path fill-rule="evenodd" clip-rule="evenodd" d="M39.0367 47.993C39.1386 47.9475 39.2194 47.8651 39.263 47.7623C39.3065 47.6595 39.3095 47.544 39.2713 47.4391C39.2331 47.362 39.221 47.2745 39.2368 47.1898C39.2526 47.1052 39.2954 47.0279 39.3589 46.9697C39.3974 46.9314 39.4279 46.8858 39.4487 46.8356C39.4696 46.7853 39.4803 46.7315 39.4803 46.6772C39.4803 46.6228 39.4696 46.569 39.4487 46.5188C39.4279 46.4685 39.3974 46.423 39.3589 46.3846C39.2978 46.3255 39.2565 46.2489 39.2408 46.1654C39.2251 46.0819 39.2358 45.9955 39.2713 45.9183C39.314 45.8059 39.3103 45.681 39.261 45.5713C39.2118 45.4616 39.121 45.3759 39.0086 45.3331C38.9323 45.3064 38.8675 45.2542 38.8253 45.1851C38.7832 45.1161 38.7661 45.0346 38.7772 44.9545C38.7773 44.8982 38.7658 44.8425 38.7435 44.7908C38.7212 44.7392 38.6885 44.6926 38.6474 44.6542C38.6063 44.6157 38.5578 44.5861 38.5048 44.5673C38.4518 44.5484 38.3954 44.5407 38.3393 44.5446C38.2582 44.5381 38.1803 44.5105 38.1133 44.4643C38.0463 44.4182 37.9927 44.3552 37.9578 44.2817C37.9148 44.1777 37.8325 44.095 37.7288 44.0516C37.625 44.0082 37.5083 44.0077 37.4042 44.0501C37.3255 44.0802 37.2401 44.088 37.1573 44.0725C37.0745 44.057 36.9976 44.019 36.9351 43.9625C36.8955 43.9189 36.8472 43.8839 36.7934 43.8601C36.7395 43.8362 36.6813 43.8239 36.6224 43.8239C36.5634 43.8239 36.5052 43.8362 36.4513 43.8601C36.3975 43.8839 36.3492 43.9189 36.3096 43.9625C36.2527 44.0176 36.1812 44.0551 36.1035 44.0707C36.0259 44.0862 35.9455 44.0791 35.8718 44.0501C35.7634 44.0088 35.6436 44.0097 35.5359 44.0526C35.4281 44.0955 35.3404 44.1772 35.2901 44.2817C35.2641 44.3613 35.2127 44.4302 35.1437 44.4777C35.0748 44.5252 34.9921 44.5487 34.9085 44.5446C34.8508 44.5437 34.7935 44.5545 34.74 44.5762C34.6865 44.5979 34.6379 44.6301 34.597 44.671C34.5562 44.7118 34.524 44.7605 34.5023 44.814C34.4806 44.8675 34.4698 44.9249 34.4707 44.9826C34.4752 45.0622 34.4555 45.1413 34.4142 45.2095C34.3729 45.2776 34.3119 45.3317 34.2392 45.3644C34.1867 45.3844 34.1387 45.4147 34.0983 45.4537C34.0578 45.4927 34.0256 45.5395 34.0037 45.5912C33.9818 45.643 33.9706 45.6986 33.9707 45.7549C33.9709 45.8111 33.9824 45.8667 34.0047 45.9183C34.0335 45.9967 34.0405 46.0814 34.0251 46.1635C34.0097 46.2456 33.9724 46.322 33.9171 46.3846C33.8758 46.4213 33.8427 46.4663 33.82 46.5168C33.7974 46.5672 33.7856 46.6219 33.7856 46.6772C33.7856 46.7325 33.7974 46.7871 33.82 46.8376C33.8427 46.888 33.8758 46.933 33.9171 46.9697C33.9723 47.033 34.0096 47.1099 34.025 47.1925C34.0404 47.275 34.0334 47.3602 34.0047 47.4391C33.9633 47.5438 33.9647 47.6605 34.0086 47.7642C34.0525 47.8678 34.1353 47.95 34.2392 47.993C34.3181 48.0281 34.3848 48.0858 34.4309 48.1587C34.4771 48.2317 34.5007 48.3166 34.4988 48.403C34.5037 48.5148 34.5524 48.6201 34.6343 48.6962C34.7163 48.7724 34.8249 48.8132 34.9367 48.8098C35.016 48.8217 35.0916 48.8516 35.1577 48.8971C35.2239 48.9427 35.2787 49.0027 35.3182 49.0726C35.3637 49.1745 35.4461 49.2554 35.5488 49.299C35.6515 49.3425 35.7669 49.3455 35.8718 49.3073C35.9506 49.2786 36.0358 49.2716 36.1183 49.287C36.2008 49.3024 36.2777 49.3397 36.3409 49.3949C36.3773 49.4362 36.422 49.4693 36.4722 49.4919C36.5223 49.5146 36.5767 49.5263 36.6317 49.5263C36.6868 49.5263 36.7411 49.5146 36.7913 49.4919C36.8414 49.4693 36.8862 49.4362 36.9226 49.3949C36.9858 49.3397 37.0627 49.3024 37.1452 49.287C37.2277 49.2716 37.3128 49.2786 37.3917 49.3073C37.4963 49.3487 37.613 49.3473 37.7165 49.3034C37.8201 49.2595 37.9023 49.1766 37.9453 49.0726C37.9802 48.9934 38.0377 48.9263 38.1106 48.8795C38.1834 48.8328 38.2684 48.8085 38.355 48.8098C38.4107 48.8082 38.4655 48.7955 38.5164 48.7726C38.5672 48.7496 38.6129 48.7169 38.651 48.6761C38.6891 48.6354 38.7188 48.5875 38.7383 48.5353C38.7578 48.483 38.7667 48.4274 38.7647 48.3717C38.7664 48.2901 38.7919 48.2109 38.838 48.1436C38.8841 48.0764 38.9488 48.024 39.0242 47.993H39.0367Z" fill="#FF7058"/>
<path fill-rule="evenodd" clip-rule="evenodd" d="M38.4552 47.4392C38.6379 46.9546 38.6248 46.4178 38.4188 45.9426C38.2128 45.4673 37.83 45.091 37.3515 44.8933C36.873 44.6956 36.3364 44.6921 35.8553 44.8834C35.3742 45.0748 34.9865 45.446 34.7742 45.9184C34.5915 46.4031 34.6045 46.9399 34.8105 47.4151C35.0165 47.8903 35.3993 48.2666 35.8778 48.4643C36.3564 48.662 36.893 48.6656 37.3741 48.4742C37.8551 48.2829 38.2429 47.9117 38.4552 47.4392Z" fill="white"/>
<path fill-rule="evenodd" clip-rule="evenodd" d="M38.2487 47.3203C38.3386 47.1068 38.3852 46.8775 38.3858 46.6458C38.3864 46.4141 38.341 46.1846 38.2522 45.9706C38.1634 45.7566 38.033 45.5623 37.8686 45.3992C37.7042 45.236 37.509 45.1072 37.2944 45.0201C37.0798 44.9331 36.85 44.8895 36.6185 44.8921C36.3869 44.8946 36.1582 44.9431 35.9455 45.0349C35.7329 45.1266 35.5405 45.2597 35.3797 45.4264C35.2189 45.5931 35.0928 45.7901 35.0087 46.006C34.9188 46.2195 34.8722 46.4488 34.8716 46.6805C34.871 46.9122 34.9164 47.1417 35.0052 47.3557C35.094 47.5697 35.2244 47.7639 35.3888 47.9271C35.5532 48.0902 35.7484 48.2191 35.963 48.3062C36.1776 48.3932 36.4074 48.4367 36.6389 48.4342C36.8705 48.4317 37.0992 48.3831 37.3119 48.2914C37.5245 48.1997 37.7168 48.0666 37.8777 47.8999C38.0385 47.7332 38.1646 47.5362 38.2487 47.3203Z" fill="#FF7058"/>
</g>
<defs>
<filter id="filter0_d_607_2195" x="0" y="0" width="80" height="80" filterUnits="userSpaceOnUse" color-interpolation-filters="sRGB">
<feFlood flood-opacity="0" result="BackgroundImageFix"/>
<feColorMatrix in="SourceAlpha" type="matrix" values="0 0 0 0 0 0 0 0 0 0 0 0 0 0 0 0 0 0 127 0" result="hardAlpha"/>
<feOffset dy="4"/>
<feGaussianBlur stdDeviation="4"/>
<feColorMatrix type="matrix" values="0 0 0 0 0.109804 0 0 0 0 0.145098 0 0 0 0 0.172549 0 0 0 0.05 0"/>
<feBlend mode="normal" in2="BackgroundImageFix" result="effect1_dropShadow_607_2195"/>
<feBlend mode="normal" in="SourceGraphic" in2="effect1_dropShadow_607_2195" result="shape"/>
</filter>
<clipPath id="clip0_607_2195">
<rect width="48" height="48" fill="white" transform="translate(16 12)"/>
</clipPath>
</defs>
</svg>

