<svg width="80" height="80" viewBox="0 0 80 80" fill="none" xmlns="http://www.w3.org/2000/svg">
<g filter="url(#filter0_d_607_2193)">
<rect x="8" y="4" width="64" height="64" rx="8" fill="#8BE38B"/>
</g>
<g clip-path="url(#clip0_607_2193)">
<path fill-rule="evenodd" clip-rule="evenodd" d="M64.0028 35.9828C64.0096 40.7345 62.6076 45.3815 59.9741 49.3357C57.3406 53.2899 53.594 56.3736 49.2084 58.1966C44.8229 60.0196 39.9954 60.5 35.3369 59.5769C30.6784 58.6538 26.3982 56.3688 23.038 53.011C19.6778 49.6532 17.3886 45.3735 16.4599 40.7135C15.5313 36.0535 16.0051 31.2225 17.8213 26.832C19.6375 22.4415 22.7145 18.6887 26.663 16.0485C30.6114 13.4083 35.2539 11.9994 40.0028 12C46.3624 12.0008 52.4616 14.5268 56.9614 19.0234C61.4612 23.52 63.9937 29.6195 64.0028 35.9828Z" fill="white"/>
<path fill-rule="evenodd" clip-rule="evenodd" d="M57.7826 43.5525H54.2485L55.0085 40.5734H57.0226L57.7826 43.5525Z" fill="#FF7058"/>
<path d="M56.3821 32.6844H55.6812V41.5653H56.3821V32.6844Z" fill="#FF7058"/>
<path fill-rule="evenodd" clip-rule="evenodd" d="M57.4326 40.5767C57.4326 40.2994 57.3504 40.0283 57.1964 39.7978C57.0425 39.5673 56.8237 39.3876 56.5676 39.2815C56.3116 39.1754 56.0299 39.1476 55.7581 39.2017C55.4863 39.2558 55.2367 39.3893 55.0407 39.5854C54.8448 39.7814 54.7114 40.0312 54.6573 40.3032C54.6032 40.5751 54.631 40.857 54.737 41.1132C54.8431 41.3693 55.0227 41.5883 55.2531 41.7423C55.4835 41.8964 55.7544 41.9786 56.0315 41.9786C56.4026 41.9769 56.758 41.8287 57.0204 41.5661C57.2828 41.3036 57.4309 40.948 57.4326 40.5767Z" fill="#324A5E"/>
<path fill-rule="evenodd" clip-rule="evenodd" d="M19.7686 32.4405L40.0031 24.7268L60.2658 32.4405L49.9453 36.3834V33.2885C49.9453 31.0073 44.7787 29.9559 39.9906 29.9559C35.2025 29.9559 30.036 31.0167 30.036 33.2979V36.3928L19.7686 32.4405Z" fill="#324A5E"/>
<path fill-rule="evenodd" clip-rule="evenodd" d="M37.6667 37.1343C38.3954 37.0749 39.1835 37.0467 40.0029 37.0467C40.8223 37.0467 41.6354 37.0749 42.336 37.1343C45.1131 37.2783 48.4094 37.7602 50.2202 38.7396V33.2665C50.2202 30.929 44.9349 29.8494 40.0029 29.8494C35.0709 29.8494 29.8105 30.929 29.8105 33.2665V38.7303C31.6213 37.7383 34.8926 37.2689 37.6667 37.1249V37.1343Z" fill="#2B3B4E"/>
<path fill-rule="evenodd" clip-rule="evenodd" d="M49.8984 40.9206C49.8795 40.8547 49.8375 40.7979 49.78 40.7605C49.7226 40.7232 49.6536 40.7078 49.5857 40.7172C43.2175 41.1272 36.8295 41.1272 30.4614 40.7172C30.3931 40.7049 30.3228 40.7191 30.2647 40.7569C30.2065 40.7947 30.165 40.8533 30.1486 40.9206C29.921 41.5985 29.8027 42.3084 29.7983 43.0235C29.7983 43.1065 29.8313 43.1861 29.8899 43.2448C29.9486 43.3035 30.0281 43.3364 30.1111 43.3364H49.936C50.0189 43.3364 50.0984 43.3035 50.1571 43.2448C50.2157 43.1861 50.2487 43.1065 50.2487 43.0235C50.2754 42.3058 50.1551 41.5902 49.8953 40.9206H49.8984Z" fill="white"/>
<path fill-rule="evenodd" clip-rule="evenodd" d="M50.5706 42.9956C50.5706 42.9126 50.5376 42.833 50.479 42.7744C50.4203 42.7157 50.3408 42.6827 50.2578 42.6827H41.6667C41.6232 42.6851 41.5805 42.6961 41.5412 42.715C41.5019 42.7339 41.4667 42.7604 41.4377 42.793C41.4086 42.8256 41.3863 42.8635 41.3719 42.9047C41.3575 42.946 41.3515 42.9896 41.354 43.0332H38.6957C38.6982 42.9896 38.6921 42.946 38.6778 42.9047C38.6634 42.8635 38.6411 42.8256 38.612 42.793C38.583 42.7604 38.5478 42.7339 38.5084 42.715C38.4691 42.6961 38.4265 42.6851 38.3829 42.6827H29.7825C29.6995 42.6827 29.62 42.7157 29.5613 42.7744C29.5027 42.833 29.4697 42.9126 29.4697 42.9956C29.388 44.193 29.6186 45.391 30.139 46.4723C30.1657 46.5269 30.2077 46.5726 30.2599 46.6037C30.3121 46.6348 30.3722 46.65 30.433 46.6475H30.4611C33.0287 46.4723 35.6276 46.3846 38.1703 46.3565L39.6871 46.3252L41.8763 46.3565C44.4158 46.3846 47.0147 46.4723 49.5854 46.6475C49.6577 46.6558 49.7303 46.636 49.7884 46.5924C49.8466 46.5487 49.8859 46.4845 49.8982 46.4128C50.4017 45.3471 50.6328 44.1728 50.5706 42.9956Z" fill="#E6E9EE"/>
<path fill-rule="evenodd" clip-rule="evenodd" d="M39.9716 44.6916L40.7003 45.0139L39.1241 48.6063L38.6268 47.7301L37.6636 47.9648L39.2429 44.3693L39.9716 44.6916Z" fill="#F1543F"/>
<path fill-rule="evenodd" clip-rule="evenodd" d="M40.4095 45.1296L39.709 45.5395L41.6355 48.9285L42.0452 48.0523L43.0084 48.1681L41.0819 44.7509L40.4095 45.1296Z" fill="#F1543F"/>
<path fill-rule="evenodd" clip-rule="evenodd" d="M42.8585 43.756C42.9348 43.6677 42.974 43.5534 42.9682 43.4368C42.9624 43.3203 42.9119 43.2105 42.8273 43.1302C42.766 43.0706 42.7227 42.995 42.7023 42.9121C42.6818 42.8291 42.685 42.742 42.7115 42.6608C42.7493 42.5599 42.7459 42.4482 42.702 42.3498C42.6581 42.2514 42.5773 42.1743 42.477 42.1351C42.3943 42.1116 42.3214 42.0621 42.269 41.9939C42.2166 41.9257 42.1875 41.8424 42.1861 41.7564C42.1704 41.6436 42.1147 41.5401 42.0292 41.4649C41.9437 41.3897 41.834 41.3476 41.7201 41.3465C41.6375 41.3474 41.5561 41.3265 41.4842 41.2858C41.4122 41.2452 41.3523 41.1862 41.3104 41.1149C41.2914 41.0616 41.2609 41.0132 41.2211 40.9729C41.1813 40.9327 41.1332 40.9016 41.0802 40.8819C41.0271 40.8623 40.9704 40.8544 40.914 40.859C40.8576 40.8636 40.803 40.8804 40.7538 40.9084C40.6771 40.9363 40.595 40.9457 40.514 40.9359C40.4331 40.9261 40.3556 40.8974 40.2878 40.8521C40.2491 40.8124 40.2025 40.7814 40.151 40.7611C40.0995 40.7408 40.0443 40.7317 39.989 40.7344C39.9337 40.737 39.8796 40.7514 39.8303 40.7766C39.781 40.8017 39.7376 40.837 39.7029 40.8802C39.6453 40.9435 39.5687 40.9862 39.4846 41.002C39.4005 41.0178 39.3136 41.0058 39.2369 40.9678C39.1324 40.9356 39.0195 40.945 38.9216 40.9939C38.8238 41.0429 38.7485 41.1277 38.7115 41.2307C38.6835 41.3113 38.6324 41.3819 38.5645 41.4337C38.4967 41.4854 38.4151 41.516 38.33 41.5217C38.2739 41.5216 38.2183 41.533 38.1668 41.5554C38.1153 41.5778 38.0691 41.6106 38.0309 41.6517C37.9927 41.6929 37.9634 41.7415 37.9449 41.7945C37.9264 41.8476 37.9191 41.9038 37.9234 41.9598C37.933 42.0479 37.9121 42.1366 37.8643 42.2112C37.8165 42.2857 37.7447 42.3417 37.6607 42.3698C37.5634 42.4196 37.4883 42.5041 37.4501 42.6066C37.4119 42.7091 37.4134 42.8222 37.4543 42.9236C37.4969 42.9975 37.5144 43.0831 37.5043 43.1677C37.4941 43.2523 37.4568 43.3314 37.398 43.393C37.3207 43.4806 37.2804 43.5949 37.2856 43.7117C37.2909 43.8284 37.3413 43.9386 37.4262 44.0189C37.4874 44.0778 37.5308 44.1528 37.5513 44.2353C37.5718 44.3178 37.5685 44.4044 37.5419 44.4852C37.5229 44.5368 37.5147 44.5918 37.5178 44.6468C37.5209 44.7018 37.5352 44.7555 37.5598 44.8048C37.5844 44.854 37.6188 44.8977 37.6609 44.9331C37.703 44.9686 37.7519 44.995 37.8046 45.0109C37.8814 45.0451 37.9485 45.0979 37.9998 45.1646C38.0511 45.2312 38.0851 45.3096 38.0986 45.3926C38.1006 45.4481 38.1135 45.5027 38.1366 45.5532C38.1597 45.6037 38.1925 45.6491 38.2332 45.6869C38.2739 45.7247 38.3216 45.754 38.3736 45.7734C38.4256 45.7927 38.4809 45.8015 38.5364 45.7995C38.6189 45.7988 38.7001 45.8201 38.7716 45.8614C38.8431 45.9027 38.9023 45.9623 38.943 46.0341C38.9619 46.0875 38.9924 46.136 39.0323 46.1763C39.0721 46.2165 39.1203 46.2474 39.1735 46.2668C39.2267 46.2863 39.2835 46.2937 39.3398 46.2887C39.3962 46.2836 39.4508 46.2661 39.4997 46.2375C39.5765 46.2099 39.6588 46.2008 39.7398 46.2111C39.8208 46.2215 39.8982 46.2509 39.9656 46.297C40.0043 46.3367 40.0509 46.3677 40.1024 46.388C40.1539 46.4082 40.2091 46.4174 40.2644 46.4147C40.3197 46.412 40.3738 46.3977 40.4231 46.3725C40.4724 46.3474 40.5158 46.312 40.5505 46.2688C40.6078 46.2052 40.6845 46.1621 40.7687 46.1463C40.8529 46.1304 40.9399 46.1427 41.0165 46.1812C41.1253 46.2093 41.2406 46.1984 41.3423 46.1504C41.4439 46.1024 41.5256 46.0203 41.5732 45.9184C41.59 45.8371 41.6337 45.7638 41.6973 45.7105C41.7608 45.6571 41.8405 45.6267 41.9234 45.6242C41.9813 45.6255 42.0388 45.615 42.0925 45.5935C42.1462 45.5719 42.195 45.5397 42.2359 45.4987C42.2768 45.4578 42.309 45.409 42.3305 45.3553C42.3521 45.3015 42.3625 45.244 42.3613 45.1861C42.3458 45.1015 42.361 45.0141 42.4039 44.9396C42.4469 44.8651 42.5149 44.8083 42.5958 44.7793C42.646 44.7564 42.6911 44.7238 42.7286 44.6833C42.766 44.6428 42.7951 44.5952 42.814 44.5434C42.8329 44.4915 42.8413 44.4365 42.8388 44.3813C42.8362 44.3262 42.8227 44.2722 42.7991 44.2223C42.7572 44.1486 42.7403 44.0633 42.751 43.9792C42.7617 43.8951 42.7995 43.8168 42.8585 43.756Z" fill="#FF7058"/>
<path fill-rule="evenodd" clip-rule="evenodd" d="M42.1046 43.4929C42.0873 43.0987 41.9532 42.7185 41.7194 42.4007C41.4856 42.0829 41.1627 41.8418 40.7916 41.7081C40.4206 41.5743 40.0182 41.554 39.6355 41.6496C39.2529 41.7452 38.9073 41.9525 38.6427 42.2451C38.3781 42.5376 38.2063 42.9023 38.1493 43.2928C38.0923 43.6833 38.1526 44.0819 38.3225 44.438C38.4924 44.7941 38.7643 45.0916 39.1037 45.2928C39.443 45.4939 39.8344 45.5896 40.2281 45.5676C40.7509 45.5385 41.241 45.3043 41.5923 44.9159C41.9436 44.5275 42.1276 44.0162 42.1046 43.4929Z" fill="white"/>
<path fill-rule="evenodd" clip-rule="evenodd" d="M41.8701 43.4931C41.853 43.1462 41.7334 42.8122 41.5265 42.5334C41.3196 42.2545 41.0347 42.0433 40.7078 41.9265C40.381 41.8097 40.0268 41.7926 39.6902 41.8772C39.3536 41.9618 39.0496 42.1445 38.8168 42.402C38.5839 42.6595 38.4326 42.9804 38.382 43.324C38.3314 43.6675 38.3838 44.0184 38.5326 44.3322C38.6813 44.646 38.9198 44.9086 39.2177 45.0867C39.5156 45.2649 39.8597 45.3506 40.2063 45.3331C40.6687 45.304 41.1014 45.0954 41.4122 44.7517C41.723 44.4079 41.8874 43.9563 41.8701 43.4931Z" fill="#FF7058"/>
</g>
<defs>
<filter id="filter0_d_607_2193" x="0" y="0" width="80" height="80" filterUnits="userSpaceOnUse" color-interpolation-filters="sRGB">
<feFlood flood-opacity="0" result="BackgroundImageFix"/>
<feColorMatrix in="SourceAlpha" type="matrix" values="0 0 0 0 0 0 0 0 0 0 0 0 0 0 0 0 0 0 127 0" result="hardAlpha"/>
<feOffset dy="4"/>
<feGaussianBlur stdDeviation="4"/>
<feColorMatrix type="matrix" values="0 0 0 0 0.109804 0 0 0 0 0.145098 0 0 0 0 0.172549 0 0 0 0.05 0"/>
<feBlend mode="normal" in2="BackgroundImageFix" result="effect1_dropShadow_607_2193"/>
<feBlend mode="normal" in="SourceGraphic" in2="effect1_dropShadow_607_2193" result="shape"/>
</filter>
<clipPath id="clip0_607_2193">
<rect width="48" height="48" fill="white" transform="translate(16 12)"/>
</clipPath>
</defs>
</svg>
